<svg width="90" height="90" viewBox="0 0 90 90" fill="none" xmlns="http://www.w3.org/2000/svg">
<rect width="90" height="90" fill="#F6F6F6"/>
<path d="M53.9062 41.4375V30.75C53.9062 28.3879 52.9679 26.1226 51.2977 24.4523C49.6274 22.7821 47.3621 21.8438 45 21.8438C42.6379 21.8438 40.3726 22.7821 38.7023 24.4523C37.0321 26.1226 36.0937 28.3879 36.0937 30.75V41.4375M63.0642 36.7041L66.0639 65.2041C66.2301 66.7835 64.9951 68.1562 63.4062 68.1562H26.5937C26.219 68.1567 25.8483 68.0782 25.5059 67.926C25.1634 67.7738 24.8568 67.5513 24.6059 67.2729C24.3551 66.9945 24.1656 66.6664 24.0498 66.31C23.934 65.9536 23.8944 65.5768 23.9337 65.2041L26.9357 36.7041C27.005 36.0476 27.3149 35.4399 27.8056 34.9983C28.2963 34.5567 28.9332 34.3124 29.5934 34.3125H60.4066C61.7746 34.3125 62.9217 35.3456 63.0642 36.7041ZM36.9844 41.4375C36.9844 41.6737 36.8905 41.9002 36.7235 42.0673C36.5565 42.2343 36.33 42.3281 36.0937 42.3281C35.8575 42.3281 35.631 42.2343 35.464 42.0673C35.297 41.9002 35.2031 41.6737 35.2031 41.4375C35.2031 41.2013 35.297 40.9748 35.464 40.8077C35.631 40.6407 35.8575 40.5469 36.0937 40.5469C36.33 40.5469 36.5565 40.6407 36.7235 40.8077C36.8905 40.9748 36.9844 41.2013 36.9844 41.4375ZM54.7969 41.4375C54.7969 41.6737 54.703 41.9002 54.536 42.0673C54.369 42.2343 54.1425 42.3281 53.9062 42.3281C53.67 42.3281 53.4435 42.2343 53.2765 42.0673C53.1095 41.9002 53.0156 41.6737 53.0156 41.4375C53.0156 41.2013 53.1095 40.9748 53.2765 40.8077C53.4435 40.6407 53.67 40.5469 53.9062 40.5469C54.1425 40.5469 54.369 40.6407 54.536 40.8077C54.703 40.9748 54.7969 41.2013 54.7969 41.4375Z" stroke="#CFCFCF" stroke-width="3.5" stroke-linecap="round" stroke-linejoin="round"/>
</svg>
