<svg width="59" height="58" viewBox="0 0 59 58" fill="none" xmlns="http://www.w3.org/2000/svg">
<path fill-rule="evenodd" clip-rule="evenodd" d="M56.5233 47.4066C56.0061 46.3849 54.7498 45.913 53.5326 45.913C49.6388 45.913 46.4822 43.0438 46.4822 39.5043C46.4822 38.8016 46.6067 38.1252 46.8366 37.4925C46.9062 37.3009 46.9778 37.1073 47.0501 36.9118C47.8855 34.6519 48.8064 32.161 47.7352 30.0447L34.3803 3.6606C32.4397 -0.173319 26.5593 -0.17333 24.6187 3.66059L21.7263 9.37481C20.8869 11.0332 21.3374 12.9714 21.7791 14.8715C21.9547 15.627 22.1289 16.3764 22.2201 17.0999C22.2436 17.2867 22.2557 17.4766 22.2557 17.6691C22.2557 20.4016 19.8188 22.6166 16.8128 22.6166C15.8422 22.6166 14.8358 22.9879 14.4233 23.8027L1.11704 50.0908C-0.561339 53.4067 2.0479 57.2154 5.99784 57.2154H53.0012C56.9511 57.2154 59.5604 53.4067 57.882 50.0908L56.5233 47.4066ZM25.8951 24.5681C26.3997 23.5523 27.4354 22.729 28.5243 22.4767C30.058 22.1314 31.8175 23.0344 32.5678 24.5615C32.9462 25.325 32.9661 25.7632 32.6939 27.7949C32.4682 29.4747 32.0831 32.3961 31.5254 36.7251C31.3195 38.2787 31.1137 39.6995 31.0606 39.8855C30.8481 40.6291 30.2506 41.2399 29.5999 41.3727C28.7169 41.5586 27.9201 41.0938 27.5085 40.1577C27.3624 39.8323 27.3425 39.7128 26.7184 34.9324C26.4993 33.2725 26.1607 30.7429 25.9681 29.322C25.7158 27.4497 25.6229 26.5069 25.6162 25.9292V25.7494C25.6162 25.3393 25.7117 24.9349 25.8951 24.5681ZM29.247 49.5968C27.8156 49.5968 26.6553 48.4364 26.6553 47.0051C26.6553 45.5737 27.8156 44.4133 29.247 44.4133C30.6784 44.4133 31.8387 45.5737 31.8387 47.0051C31.8387 48.4364 30.6784 49.5968 29.247 49.5968Z" fill="url(#paint0_linear_2498_4054)"/>
<defs>
<linearGradient id="paint0_linear_2498_4054" x1="29.5003" y1="0.785156" x2="29.5003" y2="57.2154" gradientUnits="userSpaceOnUse">
<stop stop-color="#FFAE44"/>
<stop offset="1" stop-color="#F18800"/>
</linearGradient>
</defs>
</svg>
