<svg width="26" height="26" viewBox="0 0 26 26" fill="none" xmlns="http://www.w3.org/2000/svg">
<path d="M13 24L8.50932 19.9016M13 24L17.4907 19.9016M13 24C16.4851 20.8193 17.4915 19.9008 17.4915 19.9008L17.501 19.8922L17.5191 19.8756L17.5778 19.8215C17.6266 19.7765 17.6945 19.7137 17.7786 19.635C17.9466 19.478 18.1814 19.2566 18.4609 18.9874C19.0141 18.4544 19.7697 17.7081 20.5413 16.8866C21.2872 16.0923 22.1697 15.0996 22.9061 14.0916C23.2705 13.5926 23.7029 12.95 24.0699 12.2244C24.3595 11.6517 25 10.2904 25 8.54585C25 4.93068 22.0358 2 18.3793 2C16.1634 2 14 3.5 13 5.72903C12 3.5 9.8366 2 7.62069 2C3.96418 2 1 4.93068 1 8.54585C1 10.2904 1.6405 11.6517 1.93011 12.2244C2.29706 12.95 2.7295 13.5926 3.09395 14.0916C3.83032 15.0996 4.71281 16.0923 5.45875 16.8866C6.23029 17.7081 6.98593 18.4544 7.53914 18.9874C7.81865 19.2566 8.05335 19.478 8.22138 19.635C8.30554 19.7137 8.37337 19.7765 8.42217 19.8215L8.4809 19.8756L8.49902 19.8922L8.50846 19.9008C8.50846 19.9008 9.51486 20.8193 13 24Z" stroke="black" stroke-width="2" stroke-linecap="round"/>
</svg>