<svg width="26" height="26" viewBox="0 0 26 26" fill="none" xmlns="http://www.w3.org/2000/svg">
<g clip-path="url(#clip0_588_1539)">
<path fill-rule="evenodd" clip-rule="evenodd" d="M21 9.62967V20C21 20.5523 20.5523 21 20 21H14V23H20C21.6569 23 23 21.6569 23 20V9.62967C23 8.74293 22.6077 7.90162 21.9284 7.33161L13.9284 0.618318C12.8131 -0.317596 11.1869 -0.317597 10.0716 0.618317L2.07155 7.3316C1.39229 7.90162 1 8.74293 1 9.62967V20C1 21.6569 2.34315 23 4 23H10V21H4C3.44772 21 3 20.5523 3 20V9.62967C3 9.33409 3.13076 9.05365 3.35718 8.86365L11.3572 2.15036C11.729 1.83839 12.271 1.83839 12.6428 2.15036L20.6428 8.86365C20.8692 9.05365 21 9.33409 21 9.62967Z" fill="black"/>
<path d="M14 23V17C14 16.4477 13.5523 16 13 16H11C10.4477 16 10 16.4477 10 17V23" stroke="black" stroke-width="2"/>
</g>
<defs>
<clipPath id="clip0_588_1539">
<rect width="24" height="24" fill="white"/>
</clipPath>
</defs>
</svg>
