<svg width="19" height="19" viewBox="0 0 19 19" fill="none" xmlns="http://www.w3.org/2000/svg">
<path d="M9.5 14L7.62888 12.3234M9.5 14L11.3711 12.3234M9.5 14C10.9521 12.6988 11.3715 12.3231 11.3715 12.3231L11.3754 12.3195L11.383 12.3127L11.4074 12.2906C11.4278 12.2722 11.456 12.2465 11.4911 12.2143C11.5611 12.1501 11.6589 12.0595 11.7754 11.9494C12.0059 11.7314 12.3207 11.426 12.6422 11.09C12.953 10.765 13.3207 10.3589 13.6275 9.94654C13.7794 9.74244 13.9596 9.47953 14.1125 9.18269C14.2331 8.94842 14.5 8.39151 14.5 7.67785C14.5 6.19891 13.2649 5 11.7414 5C10.8181 5 9.91667 5.61364 9.5 6.52551C9.08333 5.61364 8.18192 5 7.25862 5C5.73508 5 4.5 6.19891 4.5 7.67785C4.5 8.39151 4.76688 8.94842 4.88755 9.18269C5.04044 9.47953 5.22063 9.74244 5.37248 9.94655C5.6793 10.3589 6.047 10.765 6.35781 11.09C6.67929 11.426 6.99414 11.7314 7.22464 11.9494C7.3411 12.0595 7.4389 12.1501 7.50891 12.2143C7.54397 12.2465 7.57224 12.2722 7.59257 12.2906L7.61704 12.3127L7.62459 12.3195L7.62853 12.3231C7.62853 12.3231 8.04786 12.6988 9.5 14Z" stroke="#454545" stroke-linecap="round" stroke-linejoin="round"/>
</svg>
