<svg width="77" height="70" viewBox="0 0 77 70" fill="none" xmlns="http://www.w3.org/2000/svg">
<path d="M52.1198 33.813C50.8582 30.4003 52.6021 26.611 56.0149 25.3494C59.4276 24.0878 63.2169 25.8317 64.4785 29.2445L75.9961 60.4015C77.2577 63.8142 75.5138 67.6036 72.101 68.8651C68.6883 70.1267 64.899 68.3828 63.6374 64.97L52.1198 33.813Z" fill="url(#paint0_linear_2052_3745)"/>
<path d="M26.4531 16.606L31.9208 6.75718C32.9882 4.83464 34.7056 3.32824 36.8076 2.68237C52.8419 -2.24446 62.6573 2.42196 66.46 6.26084C67.0906 6.8974 67.5026 7.70179 67.8133 8.54221L71.1801 17.65C72.7396 21.8688 71.0182 26.5966 67.1112 28.825L27.365 51.4947C25.076 52.8003 22.1626 51.7395 21.2489 49.2678C20.8566 48.2064 20.9944 47.0465 21.1644 45.9278C21.2443 45.4019 21.2266 44.932 21.1378 44.5146C20.6227 42.094 17.9953 40.4663 17.1372 38.145L16.6439 36.8104C16.3453 36.0026 16.3566 35.0962 17.022 33.8676L20.1001 28.7202C20.9373 27.3202 23.8366 26.1611 25.0137 25.0318C27.316 22.8229 24.9045 19.3955 26.4531 16.606Z" fill="url(#paint1_linear_2052_3745)"/>
<path d="M40.0705 10.3172C37.6322 9.24152 32.2702 11.1677 33.6484 15.607C35.3713 21.1562 44.938 12.4647 40.0705 10.3172Z" fill="#FFC558"/>
<path d="M37.676 32.1286C38.5499 34.4925 37.1262 37.1969 34.4962 38.1691C31.8662 39.1414 29.0257 38.0132 28.1519 35.6493C27.278 33.2854 28.7017 30.581 31.3317 29.6088C33.9618 28.6365 36.8022 29.7647 37.676 32.1286Z" fill="#FFC558"/>
<path d="M53.2375 14.7462C51.488 12.3474 53.7111 11.0545 56.0642 10.8569C57.8863 10.7038 59.7485 11.9918 59.6723 13.8187C59.5523 16.7002 55.6805 18.0959 53.2375 14.7462Z" fill="#FFC558"/>
<path d="M1.68077 67.7541C1.68077 60.5829 7.49413 54.7696 14.6653 54.7696H36.9532C44.1243 54.7696 49.9377 60.5829 49.9377 67.7541C49.9377 68.4712 49.3564 69.0525 48.6392 69.0525H2.97922C2.2621 69.0525 1.68077 68.4712 1.68077 67.7541Z" fill="url(#paint2_linear_2052_3745)"/>
<defs>
<linearGradient id="paint0_linear_2052_3745" x1="76.4066" y1="33.9833" x2="47.3186" y2="-2.03631" gradientUnits="userSpaceOnUse">
<stop stop-color="#F18800"/>
<stop offset="1" stop-color="#FFAE44"/>
</linearGradient>
<linearGradient id="paint1_linear_2052_3745" x1="38.4066" y1="0.555664" x2="38.4066" y2="69.2756" gradientUnits="userSpaceOnUse">
<stop stop-color="#FFAE44"/>
<stop offset="1" stop-color="#F18800"/>
</linearGradient>
<linearGradient id="paint2_linear_2052_3745" x1="25.8092" y1="54.7698" x2="25.8092" y2="69.0527" gradientUnits="userSpaceOnUse">
<stop stop-color="#FFAE44"/>
<stop offset="1" stop-color="#F18800"/>
</linearGradient>
</defs>
</svg>
