<svg width="24" height="24" viewBox="0 0 24 24" fill="none" xmlns="http://www.w3.org/2000/svg">
<path fill-rule="evenodd" clip-rule="evenodd" d="M11 8C12.6569 8 14 6.65685 14 5C14 3.34315 12.6569 2 11 2C9.34315 2 8 3.34315 8 5C8 6.65685 9.34315 8 11 8ZM11 10C13.7614 10 16 7.76142 16 5C16 2.23858 13.7614 0 11 0C8.23858 0 6 2.23858 6 5C6 7.76142 8.23858 10 11 10Z" fill="black"/>
<path fill-rule="evenodd" clip-rule="evenodd" d="M19.5597 20.1345C19.8212 19.8261 20 19.4277 20 18.7981C20 17.5161 19.2065 16.1076 17.5046 14.9276C15.8227 13.7615 13.475 13 11 13C8.525 13 6.17726 13.7615 4.49542 14.9276C2.79352 16.1076 2 17.5161 2 18.7981C2 19.4277 2.17881 19.8261 2.44029 20.1345C2.73369 20.4807 3.23896 20.8347 4.0572 21.1411C5.73572 21.7696 8.17926 22 11 22C13.8207 22 16.2643 21.7696 17.9428 21.1411C18.761 20.8347 19.2663 20.4807 19.5597 20.1345ZM11 24C16.7178 24 22 23.1049 22 18.7981C22 14.4913 16.7178 11 11 11C5.28223 11 0 14.4913 0 18.7981C0 23.1049 5.28223 24 11 24Z" fill="black"/>
</svg>
