<svg width="26" height="26" viewBox="0 0 26 26" fill="none" xmlns="http://www.w3.org/2000/svg">
<path d="M4.41011 21H19.5899C21.5555 21 23.4865 19.7033 22.8899 17.5897C22.6495 16.7381 22.1991 16.3516 21.7223 15.9424C21.1079 15.4154 20.5596 14.8507 20.25 14.1794C19.6355 13.0907 19.6584 11.7572 19.6825 10.3498C19.7078 8.88142 19.7344 7.33255 19.0399 5.89715C17.4172 2.54321 14.1987 2.01653 12 2C9.80127 2.01653 6.58278 2.54321 4.96011 5.89715C4.26559 7.33255 4.29221 8.88142 4.31746 10.3498C4.34163 11.7572 4.36452 13.0907 3.75 14.1794C3.44036 14.8507 2.89214 15.4154 2.27775 15.9424C1.80086 16.3516 1.35046 16.7381 1.11011 17.5897C0.513546 19.7033 2.44449 21 4.41011 21Z" fill="black"/>
<path d="M14.5 22C14.5 23.1046 13.3807 24 12 24C10.6193 24 9.5 23.1046 9.5 22C11.6429 22 12.3571 22 14.5 22Z" fill="black"/>
<path d="M14.9904 2.24911C14.9904 1.00696 13.8255 0.5 12 0.5C10.1745 0.5 9.0096 1.00696 9.0096 2.24911C9.0096 2.34698 9.00751 2.45385 9.00528 2.56771C9.00263 2.70307 8.99977 2.74831 9.00002 2.9C10.0514 2.49414 11.1094 2.48231 12 2.47402C12.8906 2.48231 13.9486 2.49414 15 2.9C15.0005 2.62071 14.9904 2.46332 14.9904 2.24911Z" fill="black" stroke="black"/>
</svg>
