<?xml version="1.0" encoding="utf-8"?>
<!-- Generator: Adobe Illustrator 26.5.0, SVG Export Plug-In . SVG Version: 6.00 Build 0)  -->
<svg version="1.1" id="Layer_1" xmlns="http://www.w3.org/2000/svg" xmlns:xlink="http://www.w3.org/1999/xlink" x="0px" y="0px"
	 viewBox="0 0 24 24" style="enable-background:new 0 0 24 24;" xml:space="preserve">
<style type="text/css">
	.st0{fill:none;}
</style>
<path d="M14.5,22c0,1.1-1.1,2-2.5,2s-2.5-0.9-2.5-2C11.6,22,12.4,22,14.5,22z"/>
<path class="st0" d="M6.8,6.8c-0.5,0.9-0.5,2-0.4,3.5v0.1c0,1.4,0.1,3.1-0.8,4.7c-0.5,1-1.2,1.7-1.8,2.3L3,18.3c0,0.2,0,0.2,0.1,0.3
	C3.3,18.8,3.8,19,4.4,19H12V4l0,0C9.3,4,7.7,4.9,6.8,6.8z"/>
<path class="st0" d="M19.6,19c0.6,0,1.1-0.2,1.3-0.4c0.1-0.1,0.2-0.1,0.1-0.3l-0.7-0.9c-0.6-0.5-1.4-1.3-1.9-2.3
	c-0.8-1.5-0.8-3.3-0.8-4.7h0.1v-0.1c0-0.1,0-0.1,0-0.2l-0.5-3.5C16.3,4.9,14.6,4,12,4v15H19.6z"/>
<path d="M23,17.6c-0.2-0.9-0.7-1.2-1.2-1.6l0,0l0,0c-0.5-0.4-1.1-1-1.5-1.7c-0.6-1.1-0.6-2.5-0.6-3.7v-0.1c0-0.2,0-0.4,0-0.7V9.5
	l0,0c0-1.2-0.1-2.3-0.7-3.5c-1.1-2.7-3.4-4-6.9-4l0,0l0,0c-3.4,0-5.8,1.3-7,3.9C4.5,7,4.4,8.2,4.4,9.3l0,0v0.3c0,0.2,0,0.4,0,0.7
	v0.1c0,1.2,0,2.6-0.6,3.7c-0.3,0.7-1,1.3-1.5,1.7l0,0l0,0c-0.5,0.4-0.9,0.8-1.2,1.6c-0.3,1,0,1.9,0.7,2.5C2.5,20.7,3.5,21,4.5,21
	h7.6h7.6c1,0,2-0.3,2.6-0.9C23.1,19.4,23.3,18.6,23,17.6z M21,18.6c-0.2,0.2-0.7,0.4-1.3,0.4h-7.6H4.5c-0.6,0-1.1-0.2-1.3-0.4
	c-0.1-0.1-0.1-0.1-0.1-0.3l0.7-0.9c0.6-0.6,1.4-1.3,1.8-2.3c0.9-1.6,0.8-3.3,0.8-4.7v-0.1c0-1.5,0-2.6,0.4-3.5C7.8,4.9,9.4,4,12.1,4
	l0,0l0,0c2.7,0,4.3,0.9,5.2,2.8c0.5,0.9,0.5,2,0.4,3.5v0.1c0,1.4-0.1,3.1,0.8,4.7c0.5,1,1.2,1.7,1.8,2.3l0.7,0.9
	C21.2,18.5,21.1,18.5,21,18.6z"/>
<path d="M14.9,1.5c-0.2-0.3-0.3-0.3-0.6-0.5c-0.5-0.4-1.6-0.5-2.2-0.5c-0.6,0-1.6,0.1-2.2,0.5C9.6,1.1,9.4,1.2,9.3,1.5
	C9,1.8,9.1,2.3,9.1,2.7c0,0.1,0,0.1,0,0.2c0,0.1,0,0.1,0,0.2h1.2h1.2c0-0.1,0-0.1,0-0.2c0,0,0,0,0.1,0c0.1,0,0.3-0.1,0.5-0.1
	c0.2,0,0.4,0.1,0.5,0.1c0,0,0,0,0.1,0c0,0.1,0,0.1,0,0.2h1.2h1.2c0-0.1,0-0.2,0-0.2c0-0.1,0-0.1,0-0.2C15.1,2.3,15.1,1.8,14.9,1.5z"
	/>
</svg>
