<svg width="25" height="25" viewBox="0 0 25 25" fill="none" xmlns="http://www.w3.org/2000/svg">
<path d="M17.6667 6.5C19.3334 6.5 20.7501 7.08333 21.9167 8.25C23.0834 9.41667 23.6667 10.8333 23.6667 12.5C23.6667 14.1667 23.0834 15.5833 21.9167 16.75C20.7501 17.9167 19.3334 18.5 17.6667 18.5L7.66675 18.5C6.00008 18.5 4.58341 17.9167 3.41675 16.75C2.25008 15.5833 1.66675 14.1667 1.66675 12.5C1.66675 10.8333 2.25008 9.41667 3.41675 8.25C4.58341 7.08333 6.00008 6.5 7.66675 6.5L17.6667 6.5ZM17.6667 8.5L7.66675 8.5C6.56675 8.5 5.62508 8.89167 4.84175 9.675C4.05841 10.4583 3.66675 11.4 3.66675 12.5C3.66675 13.6 4.05841 14.5417 4.84175 15.325C5.62508 16.1083 6.56675 16.5 7.66675 16.5L17.6667 16.5C18.7667 16.5 19.7084 16.1083 20.4917 15.325C21.2751 14.5417 21.6667 13.6 21.6667 12.5C21.6667 11.4 21.2751 10.4583 20.4917 9.675C19.7084 8.89167 18.7667 8.5 17.6667 8.5ZM7.66675 9.5C6.83341 9.5 6.12508 9.79167 5.54175 10.375C4.95841 10.9583 4.66675 11.6667 4.66675 12.5C4.66675 13.3333 4.95841 14.0417 5.54175 14.625C6.12508 15.2083 6.83341 15.5 7.66675 15.5C8.50008 15.5 9.20842 15.2083 9.79175 14.625C10.3751 14.0417 10.6667 13.3333 10.6667 12.5C10.6667 11.6667 10.3751 10.9583 9.79175 10.375C9.20842 9.79167 8.50008 9.5 7.66675 9.5Z" fill="#01C09E"/>
<path d="M7.7041 12.501H14.1064" stroke="#01C09E" stroke-width="6" stroke-linecap="round"/>
</svg>
