<svg width="24" height="25" viewBox="0 0 24 25" fill="none" xmlns="http://www.w3.org/2000/svg">
<path d="M8 21.5C7.44772 21.5 7 21.0523 7 20.5V20.5C7 19.9477 7.44772 19.5 8 19.5H10C10.5523 19.5 11 19.0523 11 18.5V17.2004C11 16.7325 10.6713 16.3368 10.2338 16.1707C9.72007 15.9755 9.24629 15.7062 8.8125 15.3625C8.32861 14.9792 7.94187 14.5224 7.65229 13.9921C7.47569 13.6688 7.16965 13.4306 6.81095 13.3465C5.81786 13.1136 4.96838 12.6022 4.2625 11.8125C3.42083 10.8708 3 9.76667 3 8.5V7.5C3 6.95 3.19583 6.47917 3.5875 6.0875C3.97917 5.69583 4.45 5.5 5 5.5H6C6.55228 5.5 7 5.05228 7 4.5V4.5C7 3.94772 7.44772 3.5 8 3.5H16C16.5523 3.5 17 3.94772 17 4.5V4.5C17 5.05228 17.4477 5.5 18 5.5H19C19.55 5.5 20.0208 5.69583 20.4125 6.0875C20.8042 6.47917 21 6.95 21 7.5V8.5C21 9.76667 20.5792 10.8708 19.7375 11.8125C19.0316 12.6022 18.1821 13.1136 17.1891 13.3465C16.8304 13.4306 16.5243 13.6688 16.3477 13.9921C16.0581 14.5224 15.6714 14.9792 15.1875 15.3625C14.7537 15.7062 14.2799 15.9755 13.7662 16.1707C13.3287 16.3368 13 16.7325 13 17.2004V18.5C13 19.0523 13.4477 19.5 14 19.5H16C16.5523 19.5 17 19.9477 17 20.5V20.5C17 21.0523 16.5523 21.5 16 21.5H8ZM5.81517 10.5334C6.29164 11.0367 7 10.5687 7 9.87569V8.5C7 7.94771 6.55228 7.5 6 7.5V7.5C5.44772 7.5 5 7.94772 5 8.5V8.5C5 9.13333 5.18333 9.70417 5.55 10.2125C5.63249 10.3269 5.72088 10.4338 5.81517 10.5334ZM12 14.5C12.8333 14.5 13.5417 14.2083 14.125 13.625C14.7083 13.0417 15 12.3333 15 11.5V6.5C15 5.94772 14.5523 5.5 14 5.5H10C9.44772 5.5 9 5.94772 9 6.5V11.5C9 12.3333 9.29167 13.0417 9.875 13.625C10.4583 14.2083 11.1667 14.5 12 14.5ZM17 9.87569C17 10.5687 17.7084 11.0367 18.1848 10.5334C18.2791 10.4338 18.3675 10.3269 18.45 10.2125C18.8167 9.70417 19 9.13333 19 8.5V8.5C19 7.94772 18.5523 7.5 18 7.5V7.5C17.4477 7.5 17 7.94772 17 8.5V9.87569Z" fill="#FFC558"/>
</svg>
