<?xml version="1.0" encoding="UTF-8"?>
<svg id="Layer_1" data-name="Layer 1" xmlns="http://www.w3.org/2000/svg" version="1.1" viewBox="0 0 24 24">
  <defs>
    <style>
      .cls-1 {
        fill: #e9ae31;
        stroke-width: 0px;
      }
    </style>
  </defs>
  <path class="cls-1" d="M7,23c-.6,0-1-.2-1.4-.6-.4-.4-.6-.9-.6-1.4V3c0-.6.2-1,.6-1.4s.9-.6,1.4-.6h10c.6,0,1,.2,1.4.6s.6.9.6,1.4v18c0,.6-.2,1-.6,1.4-.4.4-.9.6-1.4.6H7ZM7,20v1h10v-1H7ZM7,18h10V6H7v12ZM7,4h10v-1H7v1ZM7,4v-1,1ZM7,20v1-1Z"/>
</svg>