<?xml version="1.0" encoding="UTF-8"?>
<svg id="Layer_1" data-name="Layer 1" xmlns="http://www.w3.org/2000/svg" version="1.1" viewBox="0 0 24 24">
  <defs>
    <style>
      .cls-1 {
        fill: #e9ae31;
        stroke-width: 0px;
      }
    </style>
  </defs>
  <path class="cls-1" d="M6,22c-.6,0-1-.2-1.4-.6s-.6-.9-.6-1.4V4c0-.6.2-1,.6-1.4s.9-.6,1.4-.6h12c.6,0,1,.2,1.4.6s.6.9.6,1.4v16c0,.6-.2,1-.6,1.4s-.9.6-1.4.6H6ZM6,20h12V4H6v16ZM12,19c1.4,0,2.6-.5,3.5-1.5s1.5-2.2,1.5-3.5-.5-2.6-1.5-3.5-2.2-1.5-3.5-1.5-2.6.5-3.5,1.5-1.5,2.2-1.5,3.5.5,2.6,1.5,3.5,2.2,1.5,3.5,1.5ZM12,17.3c-.4,0-.9,0-1.3-.2s-.8-.4-1.1-.7l4.7-4.7c.3.3.6.7.7,1.1s.2.8.2,1.3c0,.9-.3,1.7-1,2.3s-1.4,1-2.3,1ZM8,7c.3,0,.5,0,.7-.3s.3-.4.3-.7,0-.5-.3-.7-.4-.3-.7-.3-.5,0-.7.3-.3.4-.3.7,0,.5.3.7.4.3.7.3ZM11,7c.3,0,.5,0,.7-.3s.3-.4.3-.7,0-.5-.3-.7-.4-.3-.7-.3-.5,0-.7.3-.3.4-.3.7,0,.5.3.7.4.3.7.3ZM6,20V4v16Z"/>
</svg>