<?xml version="1.0" encoding="UTF-8"?>
<svg id="Layer_1" data-name="Layer 1" xmlns="http://www.w3.org/2000/svg" version="1.1" viewBox="0 0 24 24">
  <defs>
    <style>
      .cls-1 {
        fill: #e9ae31;
        stroke-width: 0px;
      }
    </style>
  </defs>
  <path class="cls-1" d="M14,9.9v-1.7c.6-.2,1.1-.4,1.7-.5s1.2-.2,1.8-.2.9,0,1.3.1.8.2,1.2.3v1.6c-.4-.2-.8-.3-1.2-.3s-.8-.1-1.3-.1-1.2,0-1.8.2-1.1.4-1.7.7ZM14,15.4v-1.7c.6-.2,1.1-.4,1.7-.5s1.2-.2,1.8-.2.9,0,1.3.1.8.2,1.2.3v1.6c-.4-.2-.8-.3-1.2-.3s-.8-.1-1.3-.1-1.2,0-1.8.2-1.1.4-1.7.7ZM14,12.6v-1.7c.6-.2,1.1-.4,1.7-.5s1.2-.2,1.8-.2.9,0,1.3.1.8.2,1.2.3v1.6c-.4-.2-.8-.3-1.2-.3s-.8-.1-1.3-.1-1.2,0-1.8.2-1.1.4-1.7.7ZM6.5,16c.8,0,1.5,0,2.3.3s1.5.4,2.2.8V7.2c-.7-.4-1.4-.7-2.2-.9s-1.5-.3-2.3-.3-1.2,0-1.8.2-1.2.3-1.7.5v9.9c.6-.2,1.2-.4,1.7-.5s1.2-.2,1.8-.2ZM13,17c.7-.4,1.5-.6,2.2-.8s1.5-.3,2.3-.3,1.2,0,1.8.2,1.2.3,1.7.5V6.7c-.6-.2-1.1-.4-1.7-.5s-1.2-.2-1.8-.2-1.6.1-2.3.3-1.5.5-2.2.9v9.9ZM12,20c-.8-.6-1.7-1.1-2.6-1.5s-1.9-.5-2.9-.5-1.4,0-2.1.3-1.3.4-1.9.8c-.4.2-.7.2-1,0s-.5-.5-.5-.9V6.1c0-.2,0-.4.1-.5s.2-.3.4-.4c.8-.4,1.6-.7,2.4-.9.8-.2,1.7-.3,2.6-.3s1.9.1,2.8.4,1.8.6,2.7,1.1c.9-.5,1.7-.9,2.7-1.1s1.9-.4,2.8-.4,1.7.1,2.6.3,1.6.5,2.4.9c.2,0,.3.2.4.4s.1.3.1.5v12.1c0,.4-.2.7-.5.9s-.7.2-1,0c-.6-.3-1.3-.6-1.9-.8s-1.4-.3-2.1-.3c-1,0-2,.2-2.9.5s-1.8.8-2.6,1.5Z"/>
</svg>