<svg width="20" height="19" viewBox="0 0 20 19" fill="none" xmlns="http://www.w3.org/2000/svg">
<path d="M13.6087 9.20994C13.2767 8.31185 13.7357 7.31466 14.6338 6.98267C15.5319 6.65068 16.529 7.10959 16.861 8.00769L19.892 16.2069C20.224 17.105 19.7651 18.1022 18.867 18.4342C17.9689 18.7662 16.9717 18.3073 16.6397 17.4092L13.6087 9.20994Z" fill="#FFB31B"/>
<path d="M6.85435 4.68177L8.29322 2.08999C8.5741 1.58405 9.02606 1.18763 9.5792 1.01767C13.7988 -0.278866 16.3818 0.949138 17.3825 1.95937C17.5484 2.12688 17.6568 2.33857 17.7386 2.55973L18.6246 4.95652C19.035 6.06673 18.582 7.31089 17.5538 7.89731L7.09431 13.863C6.49196 14.2066 5.72527 13.9274 5.48483 13.277C5.38157 12.9977 5.41785 12.6924 5.46259 12.398C5.48361 12.2597 5.47895 12.136 5.45557 12.0262C5.32003 11.3891 4.62862 10.9608 4.4028 10.3499L4.27297 9.99873C4.19439 9.78614 4.19737 9.54763 4.37248 9.2243L5.1825 7.86972C5.40281 7.5013 6.16579 7.19628 6.47554 6.89909C7.08141 6.31781 6.44681 5.41585 6.85435 4.68177Z" fill="#FFB31B"/>
<path d="M10.4379 3.02684C9.79622 2.74376 8.38516 3.25064 8.74786 4.41889C9.20123 5.87921 11.7188 3.59196 10.4379 3.02684Z" fill="#FFC558"/>
<path d="M9.80775 8.76667C10.0377 9.38875 9.66306 10.1004 8.97095 10.3563C8.27884 10.6121 7.53135 10.3153 7.30139 9.69318C7.07144 9.0711 7.44609 8.3594 8.1382 8.10356C8.83031 7.84771 9.57779 8.1446 9.80775 8.76667Z" fill="#FFC558"/>
<path d="M13.9029 4.19236C13.4425 3.56111 14.0275 3.22086 14.6468 3.16885C15.1262 3.12857 15.6163 3.46752 15.5963 3.94828C15.5647 4.70656 14.5458 5.07387 13.9029 4.19236Z" fill="#FFC558"/>
<path d="M0.335311 18.1418C0.335311 16.2547 1.86514 14.7248 3.75229 14.7248H9.61753C11.5047 14.7248 13.0345 16.2547 13.0345 18.1418C13.0345 18.3305 12.8815 18.4835 12.6928 18.4835H0.677009C0.488294 18.4835 0.335311 18.3305 0.335311 18.1418Z" fill="#FFB31B"/>
</svg>
