<svg width="24" height="25" viewBox="0 0 24 25" fill="none" xmlns="http://www.w3.org/2000/svg">
<path d="M16.384 19.326L16.3833 19.3254L12.7551 16.0441L9.13385 12.769L16.3781 6.44205L16.3781 6.44211L16.384 6.43675C16.7483 6.10558 16.7838 5.54536 16.4808 5.17498L16.4742 5.16691L16.4672 5.1592C16.136 4.79492 15.5758 4.7594 15.2054 5.06244L15.2053 5.06227L15.1951 5.07114L7.93888 11.4274L7.9378 11.4283C7.12435 12.1461 7.09826 13.3612 7.91419 14.1051L7.91539 14.1062L15.1709 20.668C15.1711 20.6682 15.1713 20.6684 15.1715 20.6686C15.5451 21.0076 16.116 20.9692 16.4484 20.6036C16.788 20.23 16.7499 19.6586 16.384 19.326Z" fill="#454545" stroke="#454545" stroke-width="0.8"/>
</svg>
