<svg width="25" height="25" viewBox="0 0 25 25" fill="none" xmlns="http://www.w3.org/2000/svg">
<path d="M11.3889 20.7498V13.1387L4.72222 9.27756V16.8887L11.3889 20.7498ZM13.6111 20.7498L20.2778 16.8887V9.27756L13.6111 13.1387V20.7498ZM11.3889 23.3053L3.61111 18.8331C3.25926 18.6294 2.98611 18.3609 2.79167 18.0276C2.59722 17.6942 2.5 17.3239 2.5 16.9164V8.08312C2.5 7.67571 2.59722 7.30534 2.79167 6.972C2.98611 6.63867 3.25926 6.37015 3.61111 6.16645L11.3889 1.69423C11.7407 1.49052 12.1111 1.38867 12.5 1.38867C12.8889 1.38867 13.2593 1.49052 13.6111 1.69423L21.3889 6.16645C21.7407 6.37015 22.0139 6.63867 22.2083 6.972C22.4028 7.30534 22.5 7.67571 22.5 8.08312V16.9164C22.5 17.3239 22.4028 17.6942 22.2083 18.0276C22.0139 18.3609 21.7407 18.6294 21.3889 18.8331L13.6111 23.3053C13.2593 23.509 12.8889 23.6109 12.5 23.6109C12.1111 23.6109 11.7407 23.509 11.3889 23.3053ZM16.9444 8.63867L19.0833 7.41645L12.5 3.61089L10.3333 4.86089L16.9444 8.63867ZM12.5 11.222L14.6667 9.972L8.08333 6.16645L5.91667 7.41645L12.5 11.222Z" fill="#CFCFCF"/>
</svg>
