<svg width="25" height="25" viewBox="0 0 25 25" fill="none" xmlns="http://www.w3.org/2000/svg">
<path d="M17.3335 6.5C19.0002 6.5 20.4168 7.08333 21.5835 8.25C22.7502 9.41667 23.3335 10.8333 23.3335 12.5C23.3335 14.1667 22.7502 15.5833 21.5835 16.75C20.4168 17.9167 19.0002 18.5 17.3335 18.5L7.3335 18.5C5.66683 18.5 4.25016 17.9167 3.0835 16.75C1.91683 15.5833 1.3335 14.1667 1.3335 12.5C1.3335 10.8333 1.91683 9.41667 3.0835 8.25C4.25016 7.08333 5.66683 6.5 7.3335 6.5L17.3335 6.5ZM17.3335 8.5L7.3335 8.5C6.2335 8.5 5.29183 8.89167 4.5085 9.675C3.72516 10.4583 3.3335 11.4 3.3335 12.5C3.3335 13.6 3.72516 14.5417 4.5085 15.325C5.29183 16.1083 6.2335 16.5 7.3335 16.5L17.3335 16.5C18.4335 16.5 19.3752 16.1083 20.1585 15.325C20.9418 14.5417 21.3335 13.6 21.3335 12.5C21.3335 11.4 20.9418 10.4583 20.1585 9.675C19.3752 8.89167 18.4335 8.5 17.3335 8.5ZM7.3335 9.5C6.50016 9.5 5.79183 9.79167 5.2085 10.375C4.62516 10.9583 4.3335 11.6667 4.3335 12.5C4.3335 13.3333 4.62516 14.0417 5.2085 14.625C5.79183 15.2083 6.50016 15.5 7.3335 15.5C8.16683 15.5 8.87516 15.2083 9.4585 14.625C10.0418 14.0417 10.3335 13.3333 10.3335 12.5C10.3335 11.6667 10.0418 10.9583 9.4585 10.375C8.87516 9.79167 8.16683 9.5 7.3335 9.5Z" fill="#888888"/>
<path d="M7.3606 12.501H17.3064" stroke="#888888" stroke-width="6" stroke-linecap="round"/>
</svg>
