<svg width="24" height="24" viewBox="0 0 24 24" fill="none" xmlns="http://www.w3.org/2000/svg">
<path fill-rule="evenodd" clip-rule="evenodd" d="M12 5.72903C13 3.5 15.1634 2 17.3793 2C21.0358 2 24 4.93068 24 8.54585C24 10.2904 23.3595 11.6517 23.0699 12.2244C22.7029 12.95 22.2705 13.5926 21.9061 14.0916C21.1697 15.0996 20.2872 16.0923 19.5413 16.8866C18.7697 17.7081 18.0141 18.4544 17.4609 18.9874C17.1814 19.2566 16.9466 19.478 16.7786 19.635C16.6945 19.7137 16.6266 19.7765 16.5778 19.8215L16.5191 19.8756L16.501 19.8922L16.4915 19.9008C16.4915 19.9008 15.4851 20.8193 12 24C8.51486 20.8193 7.50846 19.9008 7.50846 19.9008L7.49902 19.8922L7.4809 19.8756L7.42217 19.8215C7.37337 19.7765 7.30554 19.7137 7.22138 19.635C7.05335 19.478 6.81865 19.2566 6.53914 18.9874C5.98593 18.4544 5.23029 17.7081 4.45875 16.8866C3.71281 16.0923 2.83032 15.0996 2.09395 14.0916C1.7295 13.5926 1.29706 12.95 0.930108 12.2244C0.6405 11.6517 1.54254e-07 10.2904 0 8.54585C-3.19662e-07 4.93068 2.96418 2 6.62069 2C8.8366 2 11 3.5 12 5.72903Z" fill="black"/>
<path fill-rule="evenodd" clip-rule="evenodd" d="M12 5.72903C13 3.5 15.1634 2 17.3793 2C21.0358 2 24 4.93068 24 8.54585C24 10.2904 23.3595 11.6517 23.0699 12.2244C22.7029 12.95 22.2705 13.5926 21.9061 14.0916C21.1697 15.0996 20.2872 16.0923 19.5413 16.8866C18.7697 17.7081 18.0141 18.4544 17.4609 18.9874C17.1814 19.2566 16.9466 19.478 16.7786 19.635C16.6945 19.7137 16.6266 19.7765 16.5778 19.8215L16.5191 19.8756L16.501 19.8922L16.4915 19.9008C16.4915 19.9008 15.4851 20.8193 12 24C8.51486 20.8193 7.50846 19.9008 7.50846 19.9008L7.49902 19.8922L7.4809 19.8756L7.42217 19.8215C7.37337 19.7765 7.30554 19.7137 7.22138 19.635C7.05335 19.478 6.81865 19.2566 6.53914 18.9874C5.98593 18.4544 5.23029 17.7081 4.45875 16.8866C3.71281 16.0923 2.83032 15.0996 2.09395 14.0916C1.7295 13.5926 1.29706 12.95 0.930108 12.2244C0.6405 11.6517 1.54254e-07 10.2904 0 8.54585C-3.19662e-07 4.93068 2.96418 2 6.62069 2C8.8366 2 11 3.5 12 5.72903Z" fill="black"/>
</svg>
