<svg width="13" height="12" viewBox="0 0 13 12" fill="none" xmlns="http://www.w3.org/2000/svg">
<path d="M6.75 11L4.69177 9.1371M6.75 11L8.80823 9.1371M6.75 11C8.34735 9.55424 8.80862 9.13674 8.80862 9.13674L8.81295 9.13282L8.82126 9.12527L8.84817 9.1007C8.87054 9.08023 8.90163 9.05166 8.9402 9.01592C9.01721 8.94455 9.12479 8.84392 9.2529 8.72153C9.50645 8.47929 9.85278 8.14004 10.2064 7.76663C10.5483 7.40561 10.9528 6.95437 11.2903 6.49616C11.4573 6.26938 11.6555 5.97725 11.8237 5.64743C11.9564 5.38713 12.25 4.76835 12.25 3.97539C12.25 2.33213 10.8914 1 9.21552 1C8.19989 1 7.20833 1.68182 6.75 2.69501C6.29167 1.68182 5.30011 1 4.28448 1C2.60858 1 1.25 2.33213 1.25 3.97539C1.25 4.76835 1.54356 5.38713 1.6763 5.64743C1.84448 5.97725 2.04269 6.26938 2.20973 6.49616C2.54723 6.95437 2.9517 7.40561 3.29359 7.76663C3.64722 8.14004 3.99355 8.47929 4.2471 8.72153C4.37521 8.84392 4.48279 8.94455 4.5598 9.01592C4.59837 9.05166 4.62946 9.08023 4.65183 9.1007L4.67874 9.12527L4.68705 9.13282L4.69138 9.13674C4.69138 9.13674 5.15265 9.55424 6.75 11Z" stroke="#888888" stroke-width="1.15845" stroke-linecap="round"/>
</svg>
