<svg width="24" height="24" viewBox="0 0 24 24" fill="none" xmlns="http://www.w3.org/2000/svg">
<path fill-rule="evenodd" clip-rule="evenodd" d="M12 5.39002C12.9167 3.36364 14.8998 2 16.931 2C20.2828 2 23 4.66425 23 7.95077C23 9.5367 22.4129 10.7743 22.1474 11.2949C21.811 11.9545 21.4146 12.5388 21.0805 12.9923C20.4055 13.9087 19.5966 14.8112 18.9128 15.5333C18.2056 16.2801 17.5129 16.9586 17.0058 17.4431C16.7496 17.6878 16.5344 17.8891 16.3804 18.0318C16.3033 18.1033 16.2411 18.1605 16.1963 18.2014L16.1425 18.2505L16.1259 18.2656L16.1172 18.2735C16.1172 18.2735 15.1947 19.1085 12 22C8.80529 19.1085 7.88276 18.2735 7.88276 18.2735L7.8741 18.2656L7.85749 18.2505L7.80366 18.2014C7.75892 18.1605 7.69675 18.1033 7.6196 18.0318C7.46557 17.8891 7.25043 17.6878 6.99421 17.4431C6.48711 16.9586 5.79443 16.2801 5.08718 15.5333C4.40341 14.8112 3.59446 13.9087 2.91946 12.9923C2.58538 12.5388 2.18897 11.9545 1.8526 11.2949C1.58713 10.7743 1 9.5367 1 7.95077C1 4.66425 3.71717 2 7.06897 2C9.10022 2 11.0833 3.36364 12 5.39002Z" fill="#FF6964"/>
<path fill-rule="evenodd" clip-rule="evenodd" d="M12 5.39002C12.9167 3.36364 14.8998 2 16.931 2C20.2828 2 23 4.66425 23 7.95077C23 9.5367 22.4129 10.7743 22.1474 11.2949C21.811 11.9545 21.4146 12.5388 21.0805 12.9923C20.4055 13.9087 19.5966 14.8112 18.9128 15.5333C18.2056 16.2801 17.5129 16.9586 17.0058 17.4431C16.7496 17.6878 16.5344 17.8891 16.3804 18.0318C16.3033 18.1033 16.2411 18.1605 16.1963 18.2014L16.1425 18.2505L16.1259 18.2656L16.1172 18.2735C16.1172 18.2735 15.1947 19.1085 12 22C8.80529 19.1085 7.88276 18.2735 7.88276 18.2735L7.8741 18.2656L7.85749 18.2505L7.80366 18.2014C7.75892 18.1605 7.69675 18.1033 7.6196 18.0318C7.46557 17.8891 7.25043 17.6878 6.99421 17.4431C6.48711 16.9586 5.79443 16.2801 5.08718 15.5333C4.40341 14.8112 3.59446 13.9087 2.91946 12.9923C2.58538 12.5388 2.18897 11.9545 1.8526 11.2949C1.58713 10.7743 1 9.5367 1 7.95077C1 4.66425 3.71717 2 7.06897 2C9.10022 2 11.0833 3.36364 12 5.39002Z" fill="#FF6964"/>
<path d="M12 22L7.88354 18.2742M12 22L16.1165 18.2742M12 22C15.1947 19.1085 16.1172 18.2735 16.1172 18.2735L16.1259 18.2656L16.1425 18.2505L16.1963 18.2014C16.2411 18.1605 16.3033 18.1033 16.3804 18.0318C16.5344 17.8891 16.7496 17.6878 17.0058 17.4431C17.5129 16.9586 18.2056 16.2801 18.9128 15.5333C19.5966 14.8112 20.4055 13.9087 21.0805 12.9923C21.4146 12.5388 21.811 11.9545 22.1474 11.2949C22.4129 10.7743 23 9.5367 23 7.95077C23 4.66425 20.2828 2 16.931 2C14.8998 2 12.9167 3.36364 12 5.39002C11.0833 3.36364 9.10022 2 7.06897 2C3.71717 2 1 4.66425 1 7.95077C1 9.5367 1.58713 10.7743 1.8526 11.2949C2.18897 11.9545 2.58538 12.5388 2.91946 12.9923C3.59446 13.9087 4.40341 14.8112 5.08718 15.5333C5.79443 16.2801 6.48711 16.9586 6.99421 17.4431C7.25043 17.6878 7.46557 17.8891 7.6196 18.0318C7.69675 18.1033 7.75892 18.1605 7.80366 18.2014L7.85749 18.2505L7.8741 18.2656L7.88276 18.2735C7.88276 18.2735 8.80529 19.1085 12 22Z" stroke="#FF6964" stroke-width="2" stroke-linecap="round"/>
</svg>
