<svg width="21" height="21" viewBox="0 0 21 21" fill="none" xmlns="http://www.w3.org/2000/svg">
<path fill-rule="evenodd" clip-rule="evenodd" d="M19.8508 16.8693C19.6719 16.5158 19.2371 16.3525 18.816 16.3525C17.4686 16.3525 16.3764 15.3597 16.3764 14.135C16.3764 13.8918 16.4194 13.6578 16.499 13.4388C16.5231 13.3726 16.5479 13.3055 16.5729 13.2379C16.862 12.456 17.1806 11.594 16.8099 10.8618L12.1889 1.73227C11.5174 0.405651 9.48263 0.405647 8.81113 1.73227L7.81031 3.70951C7.51985 4.28334 7.67574 4.95401 7.82856 5.61149C7.88932 5.8729 7.9496 6.13223 7.98115 6.38256C7.98929 6.44719 7.99348 6.51292 7.99348 6.57953C7.99348 7.52501 7.15027 8.29147 6.11011 8.29147C5.77426 8.29147 5.42602 8.41994 5.28332 8.70188L0.679042 17.7981C0.0982862 18.9455 1.00114 20.2634 2.36791 20.2634H18.6321C19.9989 20.2634 20.9017 18.9455 20.321 17.7981L19.8508 16.8693ZM9.25278 8.96673C9.42739 8.61523 9.78578 8.33035 10.1626 8.24305C10.6933 8.12358 11.3021 8.43603 11.5617 8.96444C11.6926 9.22864 11.6995 9.38027 11.6053 10.0833C11.5272 10.6645 11.394 11.6754 11.201 13.1733C11.1298 13.7109 11.0585 14.2025 11.0402 14.2669C10.9667 14.5242 10.7599 14.7355 10.5347 14.7815C10.2292 14.8458 9.95349 14.685 9.81106 14.3611C9.76051 14.2485 9.75362 14.2071 9.53766 12.553C9.46185 11.9786 9.34468 11.1033 9.27806 10.6117C9.19075 9.96381 9.15859 9.63758 9.15629 9.4377V9.37548C9.15629 9.23359 9.18933 9.09365 9.25278 8.96673ZM10.4126 17.6272C9.91733 17.6272 9.51583 17.2257 9.51583 16.7304C9.51583 16.2351 9.91733 15.8336 10.4126 15.8336C10.9079 15.8336 11.3094 16.2351 11.3094 16.7304C11.3094 17.2257 10.9079 17.6272 10.4126 17.6272Z" fill="url(#paint0_linear_2498_4839)"/>
<defs>
<linearGradient id="paint0_linear_2498_4839" x1="10.5003" y1="0.737305" x2="10.5003" y2="20.2634" gradientUnits="userSpaceOnUse">
<stop stop-color="#FFAE44"/>
</linearGradient>
</defs>
</svg>
