<svg width="24" height="25" viewBox="0 0 24 25" fill="none" xmlns="http://www.w3.org/2000/svg">
<path d="M6.22692 10.978C5.80334 10.5836 5.49296 10.1162 5.29577 9.57577C5.09859 9.03534 5 8.4803 5 7.91066C5 6.72757 5.40532 5.71609 6.21596 4.87624C7.0266 4.03638 8.01617 3.61646 9.18466 3.61646C9.71049 3.61646 10.2144 3.7114 10.6964 3.90128C11.1784 4.09116 11.6093 4.36867 11.989 4.73383C12.3688 4.36867 12.7997 4.09116 13.2817 3.90128C13.7637 3.7114 14.2676 3.61646 14.7934 3.61646C15.9765 3.61646 16.9734 4.04003 17.784 4.88719C18.5947 5.73435 19 6.74948 19 7.93257C19 8.50221 18.8941 9.04629 18.6823 9.56481C18.4705 10.0833 18.1674 10.5471 17.7731 10.956L13.1941 15.4036C13.0334 15.5643 12.8508 15.6848 12.6463 15.7651C12.4418 15.8455 12.2227 15.8856 11.989 15.8856C11.7553 15.8856 11.5363 15.8455 11.3318 15.7651C11.1273 15.6848 10.9447 15.5643 10.784 15.4036L6.22692 10.978ZM7.45383 9.75104L11.989 14.1329L16.5462 9.72913C16.7945 9.49543 16.977 9.22157 17.0939 8.90753C17.2107 8.5935 17.2692 8.26852 17.2692 7.93257C17.2692 7.23148 17.0318 6.63263 16.5571 6.13602C16.0824 5.63941 15.5018 5.3911 14.8153 5.3911C14.494 5.3911 14.1836 5.45318 13.8842 5.57733C13.5848 5.70148 13.3255 5.88041 13.1064 6.11411L12.6244 6.59611C12.5368 6.68375 12.4382 6.74948 12.3286 6.79329C12.2191 6.83711 12.1059 6.85902 11.989 6.85902C11.8722 6.85902 11.7627 6.83711 11.6604 6.79329C11.5582 6.74948 11.4632 6.68375 11.3756 6.59611L10.8936 6.11411C10.6599 5.88041 10.4006 5.69783 10.1158 5.56638C9.83099 5.43492 9.52061 5.36919 9.18466 5.36919C8.49817 5.36919 7.91758 5.6175 7.44288 6.11411C6.96818 6.61072 6.73083 7.20957 6.73083 7.91066C6.73083 8.24661 6.78925 8.57524 6.9061 8.89658C7.02295 9.21792 7.20553 9.50274 7.45383 9.75104Z" fill="#FFB31B"/>
<path d="M6.51798 6.12432C6.51798 5.64032 6.91034 5.24795 7.39435 5.24795H16.6401C17.1241 5.24795 17.5165 5.64031 17.5165 6.12432V10.6069C17.5165 11.0909 17.1241 11.4833 16.6401 11.4833H7.39435C6.91034 11.4833 6.51798 11.0909 6.51798 10.6069V6.12432Z" fill="#FFB31B"/>
<path d="M11.9308 14.8144L8.38975 10.6825L15.4719 10.6825L11.9308 14.8144Z" fill="#FFB31B"/>
<path d="M4.40128 20.9749C4.40128 18.7165 6.23207 16.8857 8.49046 16.8857H15.5095C17.7679 16.8857 19.5987 18.7165 19.5987 20.9749C19.5987 21.2008 19.4157 21.3838 19.1898 21.3838H4.81019C4.58435 21.3838 4.40128 21.2008 4.40128 20.9749Z" fill="#FFB31B"/>
</svg>
