<svg width="20" height="19" viewBox="0 0 20 19" fill="none" xmlns="http://www.w3.org/2000/svg">
<path d="M8.66038 5.34706C8.88295 5.12449 9.19732 5.01971 9.50891 5.06422L11.4977 5.34833C11.9377 5.41119 12.2834 5.75688 12.3462 6.19686L12.6303 8.18565C12.6749 8.49724 12.5701 8.81161 12.3475 9.03418L7.64704 13.7346C7.25652 14.1252 6.62335 14.1252 6.23283 13.7346L3.95993 11.4617C3.5694 11.0712 3.5694 10.438 3.95993 10.0475L8.66038 5.34706Z" stroke="#454545" stroke-linecap="round" stroke-linejoin="round"/>
<path d="M9.26996 15.3891L14.6775 9.98157C14.9001 9.75901 15.0049 9.44464 14.9604 9.13305L14.5702 6.40179" stroke="#454545" stroke-linecap="round" stroke-linejoin="round"/>
<circle cx="10.6271" cy="7.0675" r="0.651796" transform="rotate(45 10.6271 7.0675)" fill="#454545"/>
</svg>
