<svg width="32" height="33" viewBox="0 0 32 33" fill="none" xmlns="http://www.w3.org/2000/svg">
<g filter="url(#filter0_d_2579_4269)">
<circle cx="15.6433" cy="16.0022" r="15.3145" fill="white" fill-opacity="0.8" shape-rendering="crispEdges"/>
</g>
<path d="M18.2008 17.3661C18.2008 18.7795 17.0566 19.9237 15.6432 19.9237C14.2298 19.9237 13.0856 18.7795 13.0856 17.3661C13.0856 15.9527 14.2298 14.8085 15.6432 14.8085C17.0566 14.8085 18.2008 15.9527 18.2008 17.3661ZM23.4348 10.9563C24.4562 10.9563 25.2837 11.7837 25.2837 12.8052V17.6512V21.7608C25.2837 22.8495 24.4008 23.7324 23.3121 23.7324H7.97434C6.88557 23.7324 6.00269 22.8495 6.00269 21.7608V17.6472V12.8052C6.00269 11.7837 6.83015 10.9563 7.8516 10.9563H11.5494L11.7236 10.2199C11.9889 9.07964 13.0064 8.27197 14.1783 8.27197H17.112C18.2839 8.27197 19.3014 9.07964 19.5667 10.2199L19.7369 10.9563H23.4348ZM9.85889 13.6247C9.85889 13.114 9.44318 12.6983 8.93245 12.6983C8.41776 12.6983 8.00205 13.114 8.00205 13.6247C8.00205 14.1355 8.41776 14.5512 8.92849 14.5512C9.44318 14.5551 9.85889 14.1394 9.85889 13.6247ZM20.2041 17.3661C20.2041 14.8481 18.1612 12.8052 15.6432 12.8052C13.1252 12.8052 11.0823 14.8481 11.0823 17.3661C11.0823 19.8841 13.1252 21.9271 15.6432 21.9271C18.1612 21.9271 20.2041 19.8841 20.2041 17.3661Z" fill="#888888"/>
<defs>
<filter id="filter0_d_2579_4269" x="0.328857" y="0.687744" width="31.6289" height="31.6289" filterUnits="userSpaceOnUse" color-interpolation-filters="sRGB">
<feFlood flood-opacity="0" result="BackgroundImageFix"/>
<feColorMatrix in="SourceAlpha" type="matrix" values="0 0 0 0 0 0 0 0 0 0 0 0 0 0 0 0 0 0 127 0" result="hardAlpha"/>
<feOffset dx="1" dy="1"/>
<feComposite in2="hardAlpha" operator="out"/>
<feColorMatrix type="matrix" values="0 0 0 0 0 0 0 0 0 0 0 0 0 0 0 0 0 0 0.15 0"/>
<feBlend mode="normal" in2="BackgroundImageFix" result="effect1_dropShadow_2579_4269"/>
<feBlend mode="normal" in="SourceGraphic" in2="effect1_dropShadow_2579_4269" result="shape"/>
</filter>
</defs>
</svg>
