<svg width="95" height="94" viewBox="0 0 95 94" fill="none" xmlns="http://www.w3.org/2000/svg">
<circle cx="47.3439" cy="46.8439" r="46.8439" fill="#D9D9D9"/>
<path fill-rule="evenodd" clip-rule="evenodd" d="M20.7002 81.3778C17.516 79.172 16.9549 74.7616 19.4564 71.8041C26.8242 63.0933 36.6079 57.7849 47.3439 57.7849C58.0799 57.7849 67.8636 63.0932 75.2313 71.8039C77.7328 74.7615 77.1717 79.1719 73.9875 81.3777C66.4235 86.6176 57.2422 89.6877 47.3438 89.6877C37.4455 89.6877 28.2642 86.6177 20.7002 81.3778ZM47.3439 55.283C56.5553 55.283 64.0226 47.8156 64.0226 38.6042C64.0226 29.3928 56.5553 21.9255 47.3439 21.9255C38.1325 21.9255 30.6652 29.3928 30.6652 38.6042C30.6652 47.8156 38.1325 55.283 47.3439 55.283Z" fill="#F6F6F6"/>
</svg>
