<svg width="20" height="19" viewBox="0 0 20 19" fill="none" xmlns="http://www.w3.org/2000/svg">
<path d="M12.6666 13.9994V12.9994C12.6666 12.4689 12.4559 11.9602 12.0808 11.5852C11.7057 11.2101 11.197 10.9994 10.6666 10.9994H6.66661C6.13618 10.9994 5.62748 11.2101 5.25241 11.5852C4.87734 11.9602 4.66663 12.4689 4.66663 12.9994V13.9994" stroke="#454545" stroke-linecap="round" stroke-linejoin="round"/>
<path d="M8.66661 8.99988C9.77117 8.99988 10.6666 8.10445 10.6666 6.99989C10.6666 5.89533 9.77117 4.99991 8.66661 4.99991C7.56205 4.99991 6.66663 5.89533 6.66663 6.99989C6.66663 8.10445 7.56205 8.99988 8.66661 8.99988Z" stroke="#454545" stroke-linecap="round" stroke-linejoin="round"/>
<path d="M15.6666 14.0001V13.0001C15.6663 12.5569 15.5188 12.1265 15.2473 11.7762C14.9758 11.426 14.5957 11.1759 14.1666 11.0651" stroke="#454545" stroke-linecap="round" stroke-linejoin="round"/>
<path d="M12.1666 5.06479C12.5968 5.17494 12.9781 5.42514 13.2504 5.77594C13.5227 6.12674 13.6705 6.55819 13.6705 7.00227C13.6705 7.44636 13.5227 7.87781 13.2504 8.22861C12.9781 8.57941 12.5968 8.82961 12.1666 8.93976" stroke="#454545" stroke-linecap="round" stroke-linejoin="round"/>
</svg>
