<svg width="48" height="48" viewBox="0 0 48 48" fill="none" xmlns="http://www.w3.org/2000/svg">
<g clip-path="url(#clip0_824_2540)">
<path d="M15.4189 32.7102L15.3345 32.7886C14.7963 33.39 14.1415 33.8759 13.41 34.2168C12.6784 34.5577 11.8852 34.7465 11.0785 34.7718C7.91976 34.7718 5.62299 32.3967 5.62299 29.1234C5.62299 25.8501 7.91976 23.481 11.0785 23.481C11.8852 23.5063 12.6784 23.6951 13.41 24.036C14.1415 24.3769 14.7963 24.8628 15.3345 25.4642L15.4189 25.5486L17.4504 23.0831L17.3961 23.0228C16.6593 22.0819 15.715 21.3241 14.6368 20.8086C13.5587 20.293 12.3759 20.0337 11.181 20.0509C8.81205 19.9992 6.51077 20.843 4.73684 22.414C2.98311 24.2082 2.00122 26.6175 2.00122 29.1264C2.00122 31.6353 2.98311 34.0446 4.73684 35.8388C6.50921 37.4124 8.81156 38.2566 11.181 38.2019C12.3753 38.2189 13.5574 37.9601 14.6354 37.4457C15.7133 36.9313 16.6581 36.1751 17.3961 35.236L17.4504 35.1697L15.4189 32.7102Z" fill="#004785"/>
<path d="M23.0987 20.3168H19.5059V37.8529H23.0987V20.3168Z" fill="#004785"/>
<path d="M37.1686 34.0307C36.3825 34.563 35.4646 34.8676 34.5162 34.9108C33.3528 34.9108 32.8343 34.308 32.8343 32.9336V23.632H36.4935V20.3286H32.8343V14.873L29.3078 16.7538V20.3286H26.2937V23.632H29.3078V33.5303C29.3078 36.225 30.9053 38.0636 33.2925 38.1118C34.4118 38.17 35.5227 37.8907 36.4814 37.31H36.5176L37.4097 33.9162L37.1686 34.0307Z" fill="#004785"/>
<path d="M43.7334 20.3168H40.1406V37.8529H43.7334V20.3168Z" fill="#004785"/>
<path d="M45.8494 17.2367C44.2413 14.9446 42.1048 13.0734 39.6206 11.7816C37.1364 10.4898 34.3776 9.81541 31.5776 9.81541C28.7776 9.81541 26.0188 10.4898 23.5346 11.7816C21.0503 13.0734 18.9138 14.9446 17.3058 17.2367L17.137 17.4718H21.2663L21.3145 17.4236C22.6318 16.0228 24.222 14.9064 25.987 14.1433C27.7521 13.3802 29.6546 12.9866 31.5776 12.9866C33.5005 12.9866 35.4031 13.3802 37.1681 14.1433C38.9332 14.9064 40.5233 16.0228 41.8406 17.4236L41.8888 17.4718H46.0182L45.8494 17.2367Z" fill="#ED1C2E"/>
</g>
<defs>
<clipPath id="clip0_824_2540">
<rect width="44" height="28.3688" fill="white" transform="translate(2 9.81548)"/>
</clipPath>
</defs>
</svg>
