<svg width="48" height="48" viewBox="0 0 48 48" fill="none" xmlns="http://www.w3.org/2000/svg">
<g clip-path="url(#clip0_824_2449)">
<path d="M45.6805 23.9949C45.6825 28.3015 44.4071 32.512 42.0157 36.0936C39.6243 39.6753 36.2244 42.4672 32.246 44.1162C28.2676 45.7651 23.8895 46.1971 19.6655 45.3574C15.4415 44.5177 11.5615 42.4441 8.51627 39.3988C5.47104 36.3536 3.39742 32.4736 2.55772 28.2496C1.71803 24.0257 2.15 19.6476 3.79898 15.6692C5.44796 11.6908 8.23985 8.29079 11.8215 5.89939C15.4031 3.508 19.6136 2.23263 23.9202 2.23461C29.6906 2.23725 35.2239 4.5307 39.3042 8.61098C43.3844 12.6913 45.6779 18.2245 45.6805 23.9949Z" fill="white"/>
<path d="M23.9202 44.7267C28.0206 44.7267 32.0288 43.5107 35.4381 41.2327C38.8475 38.9547 41.5047 35.7168 43.0738 31.9286C44.643 28.1404 45.0535 23.9719 44.2536 19.9504C43.4537 15.9288 41.4791 12.2348 38.5798 9.33537C35.6804 6.43599 31.9863 4.46149 27.9648 3.66155C23.9432 2.86161 19.7747 3.27217 15.9865 4.8413C12.1983 6.41044 8.96046 9.06768 6.68243 12.477C4.4044 15.8863 3.18848 19.8946 3.18848 23.9949C3.18848 29.4933 5.37272 34.7665 9.26067 38.6545C13.1486 42.5424 18.4218 44.7267 23.9202 44.7267Z" fill="#0083CA"/>
<mask id="mask0_824_2449" style="mask-type:alpha" maskUnits="userSpaceOnUse" x="3" y="3" width="42" height="42">
<path d="M23.9202 44.7267C28.0206 44.7267 32.0288 43.5108 35.4381 41.2328C38.8475 38.9547 41.5047 35.7169 43.0738 31.9286C44.643 28.1404 45.0535 23.972 44.2536 19.9504C43.4537 15.9288 41.4791 12.2348 38.5798 9.33542C35.6804 6.43604 31.9863 4.46153 27.9648 3.66159C23.9432 2.86165 19.7747 3.27221 15.9865 4.84135C12.1983 6.41049 8.96046 9.06773 6.68243 12.477C4.4044 15.8864 3.18848 19.8946 3.18848 23.995C3.18848 29.4934 5.37272 34.7666 9.26067 38.6545C13.1486 42.5425 18.4218 44.7267 23.9202 44.7267Z" fill="#0083CA"/>
</mask>
<g mask="url(#mask0_824_2449)">
<path d="M23.9901 34.0113C33.0976 34.0113 40.907 36.5478 44.2524 40.1429C45.4094 37.4979 46.0045 34.6414 46 31.7543C46 25.9196 43.6822 20.3238 39.5564 16.198C35.4306 12.0722 29.8348 9.75435 24 9.75435C18.1653 9.75435 12.5695 12.0722 8.44369 16.198C4.31789 20.3238 2.00002 25.9196 2.00002 31.7543C1.99587 34.6403 2.58744 37.4961 3.73767 40.1429C7.07312 36.5478 14.8725 34.0113 23.9901 34.0113Z" fill="#0083CA"/>
<path d="M23.9901 34.0321C33.0777 34.0321 40.867 36.5487 44.2025 40.1238C45.3515 37.4977 45.9432 34.6617 45.9401 31.7952C45.9401 20.0013 36.1035 10.4144 23.9701 10.4144C11.8366 10.4144 2.00002 20.0013 2.00002 31.7952C1.99606 34.6618 2.5878 37.498 3.73767 40.1238C7.11307 36.5487 14.8725 34.0321 23.9901 34.0321Z" fill="#0085CB"/>
<path d="M23.99 34.0512C33.0477 34.0512 40.8171 36.5578 44.1426 40.093C45.2902 37.491 45.882 34.6781 45.8802 31.8342C45.8802 20.1302 36.0636 10.5932 23.99 10.5932C11.9165 10.5932 2.09988 20.1402 2.09988 31.8342C2.09567 34.6783 2.68763 37.4917 3.83753 40.093C7.15301 36.5578 14.9224 34.0512 23.99 34.0512Z" fill="#0086CC"/>
<path d="M23.98 34.0812C33.0177 34.0812 40.7771 36.5578 44.0926 40.073C45.2348 37.508 45.8267 34.732 45.8302 31.9241C45.8302 20.3199 36.0435 10.8229 23.99 10.8229C11.9364 10.8229 2.16973 20.3199 2.16973 31.9241C2.16325 34.7448 2.75196 37.5352 3.89739 40.1129C7.19289 36.5578 14.9423 34.0812 23.98 34.0812Z" fill="#0088CC"/>
<path d="M23.98 34.1011C32.9678 34.1011 40.7272 36.5578 44.0327 40.0431C45.176 37.4893 45.7648 34.7221 45.7603 31.9241C45.7603 20.4098 36.0036 10.9527 23.98 10.9527C11.9564 10.9527 2.20974 20.3998 2.20974 31.9241C2.20575 34.721 2.79101 37.4874 3.9274 40.0431C7.23289 36.5578 14.9623 34.1011 23.98 34.1011Z" fill="#0089CD"/>
<path d="M23.9801 34.1211C32.9678 34.1211 40.6773 36.5578 43.9529 40.0131C45.0879 37.4817 45.6734 34.7383 45.6705 31.9641C45.6705 20.5396 35.9338 11.1425 23.9501 11.1425C11.9665 11.1425 2.23975 20.5496 2.23975 31.9641C2.23737 34.7372 2.81922 37.4798 3.94742 40.0131C7.27288 36.5578 14.9924 34.1211 23.9801 34.1211Z" fill="#008BCE"/>
<path d="M23.9801 34.1511C32.9679 34.1511 40.6374 36.5578 43.9529 39.9931C45.0866 37.4824 45.6722 34.7588 45.6705 32.004C45.6705 20.6794 35.9638 11.3322 24.0101 11.3322C12.0564 11.3322 2.34961 20.6794 2.34961 32.004C2.34845 34.7577 2.93046 37.4805 4.0573 39.9931C7.31286 36.5578 15.0123 34.1511 23.9801 34.1511Z" fill="#008DCF"/>
<path d="M23.9701 34.1711C32.9579 34.1711 40.5875 36.5678 43.873 39.9632C44.9989 37.4749 45.5811 34.7751 45.5807 32.0439C45.5807 20.8193 35.9039 11.5119 23.9701 11.5119C12.0364 11.5119 2.36963 20.8193 2.36963 32.0439C2.36833 34.7752 2.95054 37.4752 4.07729 39.9632C7.35283 36.5678 15.0323 34.1711 23.9701 34.1711Z" fill="#008ED0"/>
<path d="M23.9701 34.191C32.8879 34.191 40.5475 36.5678 43.813 39.9332C44.9443 37.4714 45.527 34.7932 45.5207 32.0839C45.5207 20.9491 35.8639 11.7017 23.9701 11.7017C12.0763 11.7017 2.42948 20.9591 2.42948 32.0839C2.42387 34.792 3.00294 37.4694 4.12715 39.9332C7.3927 36.5678 15.0522 34.191 23.9701 34.191Z" fill="#0090D0"/>
<path d="M23.9702 34.221C32.8581 34.221 40.4976 36.5678 43.7632 39.9132C44.8853 37.4699 45.4645 34.8125 45.4609 32.1238C45.4609 21.1388 35.834 11.8814 23.9702 11.8814C12.1064 11.8814 2.47949 21.0889 2.47949 32.1238C2.47968 34.8121 3.05871 37.4687 4.17719 39.9132C7.44274 36.5678 15.0723 34.221 23.9702 34.221Z" fill="#0092D1"/>
<path d="M23.97 34.241C32.8379 34.241 40.4476 36.5678 43.7131 39.8833C44.8293 37.4627 45.4084 34.8293 45.4108 32.1638C45.4108 21.1788 35.8039 12.0612 23.97 12.0612C12.1362 12.0612 2.5293 21.2287 2.5293 32.1638C2.52948 34.8295 3.10871 37.4634 4.22696 39.8833C7.48252 36.5678 15.0921 34.241 23.97 34.241Z" fill="#0093D2"/>
<path d="M23.9602 34.2609C32.8082 34.2609 40.4078 36.5778 43.6534 39.8533C44.7702 37.4577 45.3497 34.8469 45.351 32.2037C45.351 21.3585 35.7641 12.231 23.9602 12.231C12.1563 12.231 2.58937 21.3485 2.58937 32.2037C2.58632 34.8463 3.1624 37.4574 4.27707 39.8533C7.52264 36.5778 15.1123 34.2609 23.9602 34.2609Z" fill="#0095D3"/>
<path d="M23.9601 34.2909C32.7781 34.2909 40.3577 36.5778 43.6033 39.8333C44.7159 37.4579 45.2921 34.8668 45.291 32.2437C45.291 21.4983 35.734 12.4307 23.9601 12.4307C12.1862 12.4307 2.63917 21.4983 2.63917 32.2437C2.63611 34.867 3.2124 37.4586 4.32687 39.8333C7.56246 36.5778 15.1321 34.2909 23.9601 34.2909Z" fill="#0097D4"/>
<path d="M23.9602 34.3109C32.7582 34.3109 40.3179 36.5778 43.5435 39.8034C44.6546 37.4558 45.2311 34.8909 45.2312 32.2936C45.2312 21.6381 35.7042 12.6204 23.9602 12.6204C12.2162 12.6204 2.68921 21.6082 2.68921 32.2936C2.68835 34.891 3.26482 37.4561 4.37691 39.8034C7.60251 36.5778 15.1522 34.3109 23.9602 34.3109Z" fill="#0098D5"/>
<path d="M23.9501 34.3308C32.7282 34.3308 40.2679 36.5778 43.4935 39.7734C44.5965 37.4482 45.1695 34.9071 45.1712 32.3336C45.1712 21.768 35.6642 12.8002 23.9501 12.8002C12.2361 12.8002 2.74902 21.7879 2.74902 32.3336C2.7484 34.9074 3.32156 37.449 4.42676 39.7734C7.64237 36.5778 15.1721 34.3308 23.9501 34.3308Z" fill="#009AD5"/>
<path d="M23.9502 34.3508C32.6983 34.3508 40.218 36.5878 43.4337 39.7534C44.5353 37.449 45.1084 34.9277 45.1114 32.3735C45.1114 21.9078 35.6343 12.9899 23.9502 12.9899C12.2662 12.9899 2.79907 21.9078 2.79907 32.3735C2.79963 34.928 3.37292 37.4498 4.47678 39.7534C7.68241 36.5878 15.1922 34.3508 23.9502 34.3508Z" fill="#009CD6"/>
<path d="M23.9502 34.3808C32.6783 34.3808 40.1781 36.5878 43.3837 39.7235C44.4775 37.4415 45.0473 34.944 45.0514 32.4135C45.0514 22.0476 35.5943 13.1697 23.9502 13.1697C12.3061 13.1697 2.88892 22.0476 2.88892 32.4135C2.89074 34.9454 3.46423 37.4442 4.56662 39.7235C7.72232 36.5878 15.2121 34.3808 23.9502 34.3808Z" fill="#009ED7"/>
<path d="M23.9502 34.4007C32.6483 34.4007 40.1281 36.5878 43.3238 39.6935C44.4216 37.4379 44.9919 34.962 44.9915 32.4534C44.9915 22.1774 35.5644 13.3494 23.9502 13.3494C12.336 13.3494 2.88893 22.1774 2.88893 32.4534C2.88604 34.9623 3.45648 37.4387 4.55667 39.6935C7.7623 36.5878 15.2321 34.4007 23.9502 34.4007Z" fill="#00A0D8"/>
<path d="M23.9402 34.4207C32.6183 34.4207 40.0882 36.5878 43.2738 39.6735C44.3637 37.4368 44.9306 34.9815 44.9316 32.4934C44.9316 22.3172 35.5344 13.5192 23.9602 13.5192C12.386 13.5192 2.98877 22.2973 2.98877 32.4934C2.98873 34.9816 3.55566 37.4371 4.64651 39.6735C7.80221 36.5878 15.252 34.4207 23.9402 34.4207Z" fill="#00A1D9"/>
<path d="M23.94 34.4507C32.5982 34.4507 40.0381 36.5977 43.2138 39.6436C44.3033 37.4316 44.8704 34.999 44.8715 32.5333C44.8715 22.457 35.4943 13.7189 23.9001 13.7189C12.3059 13.7189 2.92871 22.457 2.92871 32.5333C2.93334 34.9986 3.5003 37.4304 4.58645 39.6436C7.88196 36.5977 15.2818 34.4507 23.94 34.4507Z" fill="#00A3DA"/>
<path d="M23.9401 34.4706C32.5684 34.4706 39.9883 36.5977 43.1639 39.6136C44.2423 37.4404 44.8094 35.0492 44.8217 32.6232C44.8217 22.6368 35.4644 13.9586 23.9401 13.9586C12.4159 13.9586 3.0686 22.6368 3.0686 32.6232C3.07745 35.0485 3.64108 37.4397 4.71635 39.6136C7.88203 36.5977 15.3019 34.4706 23.9401 34.4706Z" fill="#00A5DB"/>
<path d="M23.9402 34.4906C32.5385 34.4906 39.9184 36.5977 43.1041 39.5937C44.1934 37.4244 44.7611 35.0306 44.7618 32.6032C44.7618 22.7167 35.4346 14.0785 23.9402 14.0785C12.4459 14.0785 3.11865 22.7167 3.11865 32.6032C3.11853 35.0296 3.68263 37.4228 4.7664 39.5937C7.88215 36.5977 15.322 34.4906 23.9402 34.4906Z" fill="#00A7DC"/>
<path d="M23.9302 34.5206C32.5185 34.5206 39.9084 36.5977 43.0541 39.5637C44.1336 37.4234 44.6979 35.0603 44.7018 32.6631C44.7018 22.8665 35.3945 14.2782 23.9302 14.2782C12.4658 14.2782 3.17847 22.8665 3.17847 32.6631C3.17893 35.0595 3.73977 37.4226 4.81622 39.5637C7.96193 36.5977 15.3419 34.5206 23.9302 34.5206Z" fill="#00A9DD"/>
<path d="M23.9301 34.5405C32.4884 34.5405 39.8583 36.6077 42.9941 39.5337C44.0735 37.4184 44.6381 35.0779 44.6418 32.7031C44.6418 22.9963 35.3645 14.4579 23.9301 14.4579C12.4956 14.4579 3.22827 22.9963 3.22827 32.7031C3.23225 35.0767 3.79322 37.4163 4.86605 39.5337C8.00178 36.6077 15.3617 34.5405 23.9301 34.5405Z" fill="#00ABDE"/>
<path d="M23.9301 34.5605C32.4684 34.5605 39.8084 36.6077 42.9042 39.5537C43.9746 37.4568 44.5357 35.1372 44.5419 32.7829C44.5419 23.176 35.2946 14.6876 23.8901 14.6876C12.4857 14.6876 3.23828 23.176 3.23828 32.7829C3.2539 35.1245 3.81825 37.4298 4.88603 39.5138C8.05171 36.6077 15.3817 34.5605 23.9301 34.5605Z" fill="#00ADDE"/>
<path d="M23.9201 34.5805C32.4385 34.5805 39.7585 36.5778 42.8942 39.4838C43.9686 37.4135 44.5303 35.1155 44.532 32.7829C44.532 23.2759 35.3046 14.8074 23.9301 14.8074C12.5556 14.8074 3.34814 23.2559 3.34814 32.7829C3.35022 35.1142 3.90826 37.4114 4.97593 39.4838C8.09168 36.6077 15.4017 34.5805 23.9201 34.5805Z" fill="#00AFDF"/>
<path d="M23.9202 34.6104C32.4086 34.6104 39.7186 36.6077 42.8344 39.4538C43.9007 37.406 44.459 35.1317 44.4622 32.8229C44.4622 23.4057 35.2647 15.0072 23.9202 15.0072C12.5757 15.0072 3.38818 23.4057 3.38818 32.8229C3.39018 35.1319 3.94853 37.4064 5.01597 39.4538C8.13172 36.6077 15.4218 34.6104 23.9202 34.6104Z" fill="#00B1E0"/>
<path d="M23.9201 34.6304C32.3885 34.6304 39.6686 36.6277 42.7744 39.4339C43.8402 37.4074 44.3988 35.1526 44.4021 32.8628C44.4021 23.5455 35.2346 15.1969 23.9201 15.1969C12.6055 15.1969 3.43799 23.5455 3.43799 32.8628C3.44015 35.1527 3.99878 37.4078 5.06577 39.4339C8.17154 36.6177 15.4416 34.6304 23.9201 34.6304Z" fill="#00B3E1"/>
<path d="M23.9202 34.6504C32.3587 34.6504 39.6288 36.6477 42.7246 39.4039C43.7828 37.4 44.338 35.1689 44.3424 32.9028C44.3424 23.6754 35.1948 15.3767 23.9202 15.3767C12.6456 15.3767 3.49805 23.6854 3.49805 32.9028C3.50247 35.1689 4.05769 37.4 5.11587 39.4039C8.21164 36.6177 15.4617 34.6504 23.9202 34.6504Z" fill="#0DB5E2"/>
<path d="M23.9101 34.6804C32.3286 34.6804 39.5787 36.6177 42.6645 39.374C43.7219 37.3949 44.2774 35.1866 44.2823 32.9427C44.2823 23.8152 35.1647 15.5664 23.9101 15.5664C12.6554 15.5664 3.54785 23.8152 3.54785 32.9427C3.55276 35.1866 4.10827 37.3949 5.16564 39.374C8.25143 36.6177 15.4816 34.6804 23.9101 34.6804Z" fill="#19B7E3"/>
<path d="M23.9102 34.7003C32.3087 34.7003 39.5289 36.6177 42.6147 39.354C43.6694 37.399 44.2251 35.2139 44.2325 32.9927C44.2325 24.0049 35.1349 15.7462 23.9102 15.7462C12.6855 15.7462 3.5979 23.955 3.5979 32.9927C3.60403 35.2141 4.15981 37.3995 5.21569 39.354C8.29149 36.6177 15.5017 34.7003 23.9102 34.7003Z" fill="#21B9E4"/>
<path d="M23.9101 34.7203C32.2787 34.7203 39.4889 36.6277 42.5647 39.324C43.611 37.3915 44.1633 35.2302 44.1725 33.0326C44.1725 24.0449 35.0948 15.9359 23.9101 15.9359C12.7253 15.9359 3.65771 24.0848 3.65771 33.0326C3.66219 35.2296 4.21118 37.3912 5.25554 39.324C8.33135 36.6277 15.5215 34.7203 23.9101 34.7203Z" fill="#28BBE5"/>
<path d="M23.9102 34.7702C32.2688 34.7702 39.469 36.6676 42.5348 39.344C43.5821 37.4262 44.1347 35.2776 44.1426 33.0925C44.1426 24.2146 35.0849 16.1157 23.9102 16.1157C12.7354 16.1157 3.68774 24.2346 3.68774 33.0925C3.69089 35.2769 4.24016 37.4259 5.28557 39.344C8.35139 36.6676 15.5416 34.7702 23.9102 34.7702Z" fill="#37BDE6"/>
<path d="M23.9102 34.8302C32.2588 34.8302 39.449 36.7076 42.5049 39.374C43.5537 37.4676 44.1065 35.3282 44.1127 33.1524C44.1127 24.3345 35.065 16.2655 23.9102 16.2655C12.7554 16.2655 3.70776 24.3345 3.70776 33.1524C3.71839 35.3264 4.26735 37.4639 5.30559 39.374C8.37141 36.7076 15.5516 34.8302 23.9102 34.8302Z" fill="#43BFE6"/>
<path d="M23.9103 34.92C32.2489 34.92 39.4191 36.7875 42.4849 39.4339C43.5262 37.543 44.0756 35.4209 44.0828 33.2623C44.0828 24.4942 35.095 16.4752 23.9103 16.4752C12.7255 16.4752 3.73779 24.4643 3.73779 33.2623C3.74365 35.421 4.29317 37.5435 5.33562 39.4339C8.39145 36.7475 15.5617 34.92 23.9103 34.92Z" fill="#4DC0E7"/>
<path d="M23.9101 34.92C32.2387 34.92 39.399 36.7775 42.4548 39.4039C43.5003 37.5288 44.0535 35.4192 44.0626 33.2723C44.0626 24.5642 35.0749 16.595 23.9101 16.595C12.7453 16.595 3.76758 24.5841 3.76758 33.2723C3.77493 35.4169 4.32091 37.5253 5.35541 39.4039C8.41124 36.7875 15.5715 34.92 23.9101 34.92Z" fill="#56C2E8"/>
<path d="M23.9102 34.9899C32.2288 34.9899 39.3791 36.8274 42.4349 39.4339C43.4712 37.5736 44.0208 35.4816 44.0327 33.3522C44.0327 24.704 35.045 16.7748 23.9102 16.7748C12.7753 16.7748 3.79761 24.704 3.79761 33.3522C3.80036 35.4815 4.34691 37.5749 5.38544 39.4339C8.43128 36.8274 15.5815 34.9899 23.9102 34.9899Z" fill="#5EC4E8"/>
<path d="M23.9102 35.0399C32.2089 35.0399 39.3592 36.8674 42.405 39.4638C43.4454 37.616 43.9955 35.5326 44.0028 33.4121C44.0028 24.8238 35.0151 16.9445 23.9102 16.9445C12.8054 16.9445 3.81763 24.8238 3.81763 33.4121C3.82634 35.5312 4.37267 37.6134 5.40546 39.4638C8.46129 36.9173 15.5916 35.0399 23.9102 35.0399Z" fill="#65C6E9"/>
<path d="M23.9101 35.0898C32.1988 35.0898 39.3391 36.9073 42.3849 39.4838C43.414 37.6536 43.9605 35.5916 43.9728 33.492C43.9728 24.9636 34.985 17.1343 23.9101 17.1343C12.8352 17.1343 3.88745 24.9336 3.88745 33.472C3.89844 35.5718 4.44495 37.6341 5.47528 39.4638C8.48118 36.9173 15.6115 35.0898 23.9101 35.0898Z" fill="#6DC7EA"/>
<path d="M23.9101 35.1397C32.1888 35.1397 39.3191 36.9473 42.355 39.5038C43.392 37.6768 43.939 35.6127 43.9428 33.5119C43.9428 25.0335 34.9551 17.2541 23.9101 17.2541C12.8652 17.2541 3.88745 25.0635 3.88745 33.5419C3.8878 35.6418 4.43134 37.706 5.46529 39.5337C8.50115 36.9173 15.6214 35.1397 23.9101 35.1397Z" fill="#74C9EA"/>
<path d="M23.9101 35.1996C32.1788 35.1996 39.2991 36.9872 42.335 39.5337C43.3612 37.7241 43.9078 35.6821 43.9228 33.6018C43.9228 25.1833 34.9351 17.4538 23.9501 17.4538C12.965 17.4538 3.97729 25.1933 3.97729 33.6018C3.98299 35.6821 4.52655 37.7255 5.55516 39.5337C8.52112 36.9872 15.6314 35.1996 23.9101 35.1996Z" fill="#7ACBEB"/>
<path d="M23.91 35.2496C32.1688 35.2496 39.2791 37.0272 42.305 39.5537C43.3351 37.7638 43.8823 35.7369 43.8928 33.6717C43.8928 25.3131 34.905 17.6236 23.92 17.6236C12.935 17.6236 3.94727 25.3131 3.94727 33.6717C3.95794 35.7356 4.50145 37.7616 5.52513 39.5537C8.54102 37.0272 15.6413 35.2496 23.91 35.2496Z" fill="#81CDEC"/>
<path d="M23.9102 35.2995C32.159 35.2995 39.2593 37.0671 42.2852 39.5737C43.3077 37.7956 43.8513 35.7827 43.863 33.7316C43.863 25.433 34.9252 17.7534 23.8902 17.7534C12.8553 17.7534 3.91748 25.403 3.91748 33.7316C3.92315 35.7835 4.46721 37.798 5.49532 39.5737C8.56113 37.0671 15.6515 35.2995 23.9102 35.2995Z" fill="#87CFEC"/>
<path d="M23.9101 35.3594C32.1489 35.3594 39.2293 37.107 42.2551 39.5936C43.2782 37.8304 43.8222 35.8301 43.833 33.7916C43.833 25.5528 34.9051 17.9532 23.9101 17.9532C12.9151 17.9532 3.9873 25.5528 3.9873 33.7916C3.99459 35.8293 4.53513 37.8296 5.55517 39.5936C8.58105 37.107 15.6614 35.3594 23.9101 35.3594Z" fill="#8ED1ED"/>
<path d="M23.9102 35.4094C32.139 35.4094 39.2093 37.147 42.2352 39.6236C43.2555 37.8737 43.7995 35.887 43.8131 33.8615C43.8131 25.6726 34.8952 18.1229 23.9102 18.1229C12.9252 18.1229 4.01733 25.6826 4.01733 33.8615C4.026 35.8864 4.56669 37.8735 5.5852 39.6236C8.60109 37.147 15.6814 35.4094 23.9102 35.4094Z" fill="#94D3EE"/>
<path d="M23.9101 35.4593C32.1289 35.4593 39.1893 37.1869 42.2052 39.6436C43.244 37.9136 43.8057 35.9391 43.8329 33.9214C43.8329 25.7925 34.9251 18.2927 23.9601 18.2927C12.995 18.2927 4.08716 25.8025 4.08716 33.9214C4.09578 35.9337 4.63668 37.9079 5.655 39.6436C8.62095 37.1869 15.6913 35.4593 23.9101 35.4593Z" fill="#9AD5EF"/>
<path d="M23.9101 35.5092C32.1189 35.5092 39.1693 37.2269 42.1752 39.6636C43.1947 37.9461 43.7392 35.9885 43.753 33.9913C43.753 25.9223 34.8651 18.4625 23.9101 18.4625C12.955 18.4625 4.06714 25.9223 4.06714 33.9913C4.07599 35.9879 4.61722 37.9459 5.63501 39.6636C8.64091 37.2269 15.7013 35.5092 23.9101 35.5092Z" fill="#A0D7F0"/>
<path d="M23.9101 35.5691C32.109 35.5691 39.1494 37.2668 42.1553 39.6835C43.168 37.9783 43.7091 36.0345 43.7232 34.0512C43.7232 26.0621 34.8452 18.6322 23.9101 18.6322C12.9751 18.6322 4.09717 26.0421 4.09717 34.0512C4.10283 36.0343 4.64085 37.9794 5.65504 39.6835C8.66094 37.2668 15.7113 35.5691 23.9101 35.5691Z" fill="#A6D9F0"/>
<path d="M23.9102 35.6191C32.099 35.6191 39.1295 37.3068 42.1254 39.7135C43.1455 38.0219 43.6906 36.0865 43.7032 34.1111C43.7032 26.122 34.8353 18.802 23.9102 18.802C12.9851 18.802 4.1272 26.172 4.1272 34.1111C4.13382 36.0846 4.67196 38.0199 5.68507 39.7135C8.68098 37.3068 15.7214 35.6191 23.9102 35.6191Z" fill="#ACDCF1"/>
<path d="M23.91 35.669C32.0789 35.669 39.1093 37.3467 42.1052 39.7335C43.1159 38.0566 43.6575 36.1389 43.6731 34.181C43.6731 26.2818 34.8152 18.9718 23.91 18.9718C13.0049 18.9718 4.15698 26.2918 4.15698 34.181C4.16561 36.1372 4.70027 38.055 5.70489 39.7335C8.71079 37.3467 15.7312 35.669 23.91 35.669Z" fill="#B2DEF2"/>
<path d="M23.9101 35.7189C32.0689 35.7189 39.0894 37.3867 42.0753 39.7135C43.086 38.0512 43.6278 36.1463 43.6432 34.201C43.6432 26.3717 34.7952 19.1016 23.9101 19.1016C13.0249 19.1016 4.177 26.3717 4.177 34.201C4.18287 36.1463 4.72167 38.0529 5.73488 39.7135C8.73079 37.3867 15.7512 35.7189 23.9101 35.7189Z" fill="#B8E0F3"/>
<path d="M23.9101 35.7789C32.059 35.7789 39.0695 37.4266 42.0554 39.7734C43.0598 38.1236 43.5981 36.2323 43.6133 34.3009C43.6133 26.5215 34.7853 19.3213 23.9101 19.3213C13.035 19.3213 4.20703 26.5415 4.20703 34.3009C4.21561 36.2333 4.75448 38.1262 5.7649 39.7734C8.75083 37.4266 15.7613 35.7789 23.9101 35.7789Z" fill="#BDE2F4"/>
<path d="M23.9102 35.8288C32.0491 35.8288 39.0496 37.4666 42.0255 39.8233C43.0308 38.1886 43.5696 36.3098 43.5834 34.3908C43.5834 26.6713 34.7654 19.4911 23.9102 19.4911C13.055 19.4911 4.23706 26.6813 4.23706 34.3908C4.24584 36.3092 4.78126 38.1884 5.78494 39.8233C8.77087 37.4666 15.7713 35.8288 23.9102 35.8288Z" fill="#C3E5F5"/>
<path d="M23.91 35.9187C32.039 35.9187 39.0195 37.5464 42.0054 39.8633C43.006 38.2411 43.5447 36.3765 43.5633 34.4706C43.5633 26.8111 34.7553 19.6808 23.91 19.6808C13.0648 19.6808 4.26685 26.8211 4.26685 34.4706C4.27223 36.3756 4.8045 38.242 5.80476 39.8633C8.79069 37.5065 15.7811 35.9187 23.91 35.9187Z" fill="#C9E7F5"/>
<path d="M23.9101 35.9187C32.029 35.9187 38.9995 37.5265 41.9755 39.8233C42.9754 38.2192 43.5144 36.3708 43.5334 34.4806C43.5334 26.871 34.7353 19.7907 23.9101 19.7907C13.0849 19.7907 4.28687 26.9309 4.28687 34.5006C4.29611 36.3908 4.83216 38.2409 5.83477 39.8433C8.81071 37.5464 15.7912 35.9187 23.9101 35.9187Z" fill="#CEE9F6"/>
<path d="M23.9102 35.9886C32.0191 35.9886 38.9796 37.5864 41.9556 39.8733C42.9509 38.2787 43.4866 36.4402 43.5035 34.5605C43.5035 27.0208 34.7254 19.9804 23.9102 19.9804C13.0949 19.9804 4.31689 27.0208 4.31689 34.5605C4.32545 36.4567 4.8689 38.3121 5.88476 39.9132C8.88068 37.5864 15.8012 35.9886 23.9102 35.9886Z" fill="#D4ECF7"/>
<path d="M23.9101 36.0385C32.0091 36.0385 38.9596 37.6263 41.8856 39.8932C42.8827 38.3179 43.4189 36.4948 43.4335 34.6304C43.4335 27.1406 34.6655 20.1502 23.8702 20.1502C13.0749 20.1502 4.30688 27.1406 4.30688 34.6304C4.32235 36.5052 4.86948 38.3371 5.88472 39.9132C8.88063 37.6263 15.8711 36.0385 23.9101 36.0385Z" fill="#DAEEF8"/>
<path d="M23.9103 36.0884C31.9992 36.0884 38.9398 37.6663 41.8858 39.9132C42.8832 38.3522 43.4229 36.5427 43.4436 34.6903C43.4436 27.2605 34.6756 20.3199 23.9003 20.3199C13.125 20.3199 4.36694 27.3104 4.36694 34.6903C4.37413 36.5391 4.90004 38.3486 5.88486 39.9132C8.88078 37.6663 15.8712 36.0884 23.9103 36.0884Z" fill="#DFF1F9"/>
<path d="M23.9101 36.1484C31.9891 36.1484 38.8897 37.7062 41.8856 39.9332C42.8808 38.3864 43.4174 36.5894 43.4335 34.7503C43.4335 27.3803 34.6855 20.4897 23.9201 20.4897C13.1548 20.4897 4.40674 27.3903 4.40674 34.7503C4.41434 36.5893 4.94798 38.3877 5.94465 39.9332C8.88065 37.7062 15.8711 36.1484 23.9101 36.1484Z" fill="#E5F3FA"/>
<path d="M23.91 36.1983C31.979 36.1983 38.8896 37.7462 41.8855 39.9632C42.8774 38.4297 43.4142 36.6464 43.4334 34.8202C43.4334 27.5101 34.6953 20.6595 23.95 20.6595C13.2046 20.6595 4.46655 27.5101 4.46655 34.8202C4.47876 36.6446 5.0086 38.428 5.99447 39.9632C8.88053 37.7462 15.871 36.1983 23.91 36.1983Z" fill="#EBF6FB"/>
<path d="M23.9102 36.2482C31.9692 36.2482 38.8898 37.7861 41.8258 39.9831C42.811 38.4619 43.3443 36.6923 43.3637 34.8801C43.3637 27.63 34.6456 20.8292 23.9102 20.8292C13.1749 20.8292 4.45679 27.63 4.45679 34.92C4.46773 36.7321 4.99799 38.5031 5.9847 40.0231C8.93069 37.7861 15.8712 36.2482 23.9102 36.2482Z" fill="#F1F8FD"/>
<path d="M23.9101 36.2981C31.9591 36.2981 38.8896 37.8261 41.7957 40.0031C42.789 38.4931 43.3232 36.7274 43.3336 34.92C43.3336 27.7198 34.6255 20.9391 23.9101 20.9391C13.1947 20.9391 4.48657 27.6999 4.48657 34.92C4.49568 36.7154 5.02273 38.47 6.00449 39.9731C8.96046 37.8261 15.871 36.2981 23.9101 36.2981Z" fill="#F7FBFE"/>
<path d="M23.9101 36.3581C31.8992 36.3581 38.8298 37.866 41.7758 40.033C42.7531 38.5489 43.2866 36.8167 43.3137 35.0399C43.3137 27.8996 34.6155 21.1987 23.9101 21.1987C13.2047 21.1987 4.50659 27.9096 4.50659 35.0399C4.52508 36.8166 5.05558 38.5502 6.03451 40.033C8.98049 37.9159 15.8711 36.3581 23.9101 36.3581Z" fill="white"/>
<path d="M23.9102 29.2278C17.4467 29.1682 11.0234 30.2501 4.93604 32.4234C6.56627 36.0848 9.22281 39.1951 12.5841 41.3779C15.9454 43.5606 19.8674 44.7224 23.8752 44.7224C27.8831 44.7224 31.805 43.5606 35.1663 41.3779C38.5276 39.1951 41.1842 36.0848 42.8144 32.4234C36.7498 30.2553 30.3504 29.1736 23.9102 29.2278Z" fill="#0083CA"/>
</g>
</g>
<defs>
<clipPath id="clip0_824_2449">
<rect width="44" height="43.5306" fill="white" transform="translate(2 2.2346)"/>
</clipPath>
</defs>
</svg>
