<svg width="26" height="26" viewBox="0 0 26 26" fill="none" xmlns="http://www.w3.org/2000/svg">
<circle cx="12.8496" cy="12.8496" r="12.8496" fill="#454545"/>
<path d="M8.47643 7.75086L8.4764 7.75086C8.3324 7.75089 8.19168 7.79388 8.07224 7.87431C7.95279 7.95474 7.86005 8.06896 7.80587 8.20238C7.75168 8.3358 7.73851 8.48234 7.76805 8.62328C7.79754 8.76399 7.86825 8.89272 7.97117 8.99308L11.826 12.8479L7.9714 16.7025C7.90229 16.7691 7.84709 16.8487 7.80902 16.9368C7.77081 17.0252 7.75063 17.1203 7.74965 17.2166C7.74867 17.3129 7.76691 17.4084 7.80331 17.4976C7.83972 17.5868 7.89354 17.6678 7.96164 17.7359C8.02974 17.804 8.11075 17.8578 8.19991 17.8942C8.28907 17.9306 8.3846 17.9489 8.48091 17.9479C8.57721 17.9469 8.67235 17.9267 8.76075 17.8885C8.84883 17.8504 8.92846 17.7952 8.99502 17.7261L12.8496 13.8715L16.7042 17.7261C16.7708 17.7952 16.8504 17.8504 16.9385 17.8885C17.0269 17.9267 17.122 17.9469 17.2183 17.9479C17.3146 17.9489 17.4101 17.9306 17.4993 17.8942C17.5885 17.8578 17.6695 17.804 17.7376 17.7359C17.8057 17.6678 17.8595 17.5868 17.8959 17.4976C17.9323 17.4084 17.9506 17.3129 17.9496 17.2166C17.9486 17.1203 17.9284 17.0252 17.8902 16.9368C17.8521 16.8487 17.7969 16.7691 17.7278 16.7025L13.8732 12.8479L17.7275 8.99362C17.7277 8.99344 17.7279 8.99327 17.728 8.99309C17.8323 8.89149 17.9036 8.76079 17.9325 8.61807C17.9614 8.47509 17.9464 8.32671 17.8896 8.19237C17.8327 8.05803 17.7366 7.944 17.6139 7.86523C17.4911 7.78645 17.3474 7.7466 17.2016 7.7509L17.2015 7.7509C17.0137 7.7565 16.8355 7.83489 16.7044 7.96951C16.7042 7.96968 16.7041 7.96986 16.7039 7.97004L12.8496 11.8243L8.9948 7.96949C8.92744 7.90038 8.84695 7.84544 8.75805 7.8079C8.66893 7.77026 8.57317 7.75086 8.47643 7.75086Z" fill="white" stroke="white" stroke-width="0.2"/>
</svg>
