<?xml version="1.0" encoding="UTF-8"?>
<svg id="Layer_1" data-name="Layer 1" xmlns="http://www.w3.org/2000/svg" version="1.1" viewBox="0 0 24 24">
  <defs>
    <style>
      .cls-1 {
        fill: #e9ae31;
        stroke-width: 0px;
      }
    </style>
  </defs>
  <path class="cls-1" d="M12,16c.8,0,1.5-.2,2.1-.7s1.1-1.1,1.4-1.8h-7c.3.8.7,1.4,1.4,1.8s1.3.7,2.1.7ZM9.5,12c.4,0,.8-.1,1.1-.4s.4-.6.4-1.1-.1-.8-.4-1.1-.6-.4-1.1-.4-.8.1-1.1.4-.4.6-.4,1.1.1.8.4,1.1.6.4,1.1.4ZM14.5,12c.4,0,.8-.1,1.1-.4s.4-.6.4-1.1-.1-.8-.4-1.1-.6-.4-1.1-.4-.8.1-1.1.4-.4.6-.4,1.1.1.8.4,1.1.6.4,1.1.4ZM7.6,6.4l2.8-3.6c.2-.3.4-.5.7-.6s.6-.2.9-.2.6,0,.9.2.5.3.7.6l2.8,3.6,4.3,1.4c.4.1.8.4,1,.7s.4.8.4,1.2,0,.4,0,.6-.2.4-.3.6l-2.8,3.9v4.1c.1.6,0,1.1-.5,1.5s-.9.6-1.4.6-.2,0-.6,0l-4.5-1.3-4.5,1.3c0,0-.2,0-.3,0s-.2,0-.3,0c-.5,0-1-.2-1.4-.6s-.6-.9-.6-1.5v-4.1c.1,0-2.6-3.9-2.6-3.9-.1-.2-.2-.4-.3-.6s0-.4,0-.6c0-.4.1-.8.4-1.2s.6-.6,1-.8l4.3-1.4ZM8.9,8.1l-4.9,1.6,3.1,4.5v4.8c-.1,0,4.9-1.4,4.9-1.4l5,1.4v-4.8c-.1,0,3-4.4,3-4.4l-4.9-1.7-3.2-4.1-3.2,4.1Z"/>
</svg>