<svg width="48" height="48" viewBox="0 0 48 48" fill="none" xmlns="http://www.w3.org/2000/svg">
<g clip-path="url(#clip0_824_2438)">
<path d="M31.7948 4.23938L24 8.15961L16.2051 4.23938L24 19.0542L31.7948 4.23938Z" fill="#FFB71B"/>
<path d="M34.5761 15.639L40.1374 13.3142V5.47372L30.4736 9.62189L25.0945 19.7416C27.1639 19.9801 29.0636 21.001 30.4044 22.5951C31.7453 24.1893 32.4257 26.2358 32.3062 28.3154C32.1867 30.395 31.2764 32.3502 29.7619 33.7803C28.2473 35.2103 26.2431 36.007 24.1601 36.007C22.0771 36.007 20.073 35.2103 18.5584 33.7803C17.0438 32.3502 16.1335 30.395 16.014 28.3154C15.8946 26.2358 16.5749 24.1893 17.9157 22.5951C19.2565 21.001 21.1562 19.9801 23.2256 19.7416L17.8467 9.62189L8.22852 5.47372V13.3142L13.8809 15.639C11.4294 17.7818 9.69013 20.6216 8.89514 23.779C8.10014 26.9364 8.28726 30.2612 9.43169 33.3094C10.5761 36.3576 12.6233 38.9842 15.2998 40.8382C17.9764 42.6923 21.1548 43.6857 24.4108 43.6857C27.6668 43.6857 30.8452 42.6923 33.5218 40.8382C36.1983 38.9842 38.2455 36.3576 39.3899 33.3094C40.5343 30.2612 40.7216 26.9364 39.9266 23.779C39.1316 20.6216 37.3922 17.7818 34.9407 15.639H34.5761Z" fill="#FFB71B"/>
</g>
<defs>
<clipPath id="clip0_824_2438">
<rect width="32" height="39.5214" fill="white" transform="translate(8 4.23938)"/>
</clipPath>
</defs>
</svg>
