<svg width="48" height="48" viewBox="0 0 48 48" fill="none" xmlns="http://www.w3.org/2000/svg">
<g clip-path="url(#clip0_824_2445)">
<path d="M23.0186 2.31655C18.7295 2.51107 14.5945 3.97332 11.1365 6.51831C7.6786 9.0633 5.05314 12.5767 3.59231 16.6141C2.13147 20.6514 1.90088 25.0313 2.92971 29.1998C3.95854 33.3682 6.20059 37.1378 9.37219 40.0318C12.5438 42.9258 16.5024 44.8142 20.7474 45.458C24.9924 46.1018 29.3329 45.4721 33.22 43.6486C37.1071 41.8251 40.366 38.8898 42.5845 35.2138C44.803 31.5379 45.8814 27.2866 45.6834 22.9976C45.556 20.1496 44.8686 17.3546 43.6603 14.7725C42.4521 12.1903 40.7467 9.87162 38.6418 7.94896C36.5369 6.02629 34.0736 4.53736 31.3929 3.5673C28.7122 2.59723 25.8665 2.16505 23.0186 2.29546V2.31655Z" fill="url(#paint0_radial_824_2445)"/>
<path d="M23.0082 2.02168C18.6611 2.2182 14.4699 3.69946 10.9648 6.27811C7.4596 8.85676 4.79789 12.417 3.31624 16.5085C1.8346 20.6 1.59961 25.039 2.64096 29.264C3.68231 33.4891 5.95325 37.3105 9.16655 40.2448C12.3799 43.1791 16.3912 45.0946 20.6932 45.7491C24.9952 46.4035 29.3947 45.7674 33.3352 43.9212C37.2757 42.0751 40.5802 39.1019 42.8307 35.3776C45.0813 31.6533 46.1769 27.3452 45.9789 22.9982C45.7134 17.1699 43.1448 11.6854 38.8375 7.75011C34.5302 3.81478 28.8367 1.75056 23.0082 2.01112V2.02168ZM25.5827 23.3675C29.4974 26.9761 31.6394 28.9176 31.6394 28.9176C38.5295 34.6576 36.1765 39.9018 33.5386 41.7272C31.4186 43.1411 28.9328 43.9074 26.3847 43.9325C26.2965 43.9458 26.2065 43.9413 26.1201 43.9191C26.0337 43.897 25.9526 43.8576 25.8817 43.8035C25.8108 43.7493 25.7516 43.6814 25.7075 43.6039C25.6633 43.5264 25.6353 43.4408 25.625 43.3522C25.625 42.8562 26.3319 42.7296 26.3319 42.7296C32.8422 41.4529 30.9324 37.1795 28.6322 35.0059C27.672 34.0879 18.6082 26.2692 18.6082 26.2692C9.977 18.8831 10.6629 13.0269 10.6629 13.0269C11.0744 5.88354 17.3314 4.11088 22.0691 4.5224C22.6178 4.57515 22.9238 4.91282 22.8288 5.36654C22.7338 5.82026 21.9952 5.91521 21.9952 5.91521C20.642 5.88006 19.3032 6.20021 18.1123 6.84375C14.3031 9.40778 15.4322 13.7761 20.518 18.6298C21.1511 19.2418 21.837 19.8855 22.5334 20.5397C22.5334 20.5397 23.5568 21.4366 25.5827 23.3675ZM22.6283 41.8327C22.6283 42.5397 20.9717 42.8351 19.0408 42.6452C16.1535 42.4398 13.4038 41.3325 11.1799 39.4797C9.03979 37.5528 7.49183 35.057 6.71658 32.2835C5.99908 29.7934 5.66143 26.8917 6.88541 27.1133C7.24416 27.1871 7.87724 28.791 8.55254 29.9517C9.00446 30.8215 9.625 31.5927 10.378 32.2202C10.6207 32.3996 11.4331 30.5531 12.6571 29.5085C13.3535 28.9282 14.1238 28.7277 14.2504 30.4581C14.3981 32.5685 14.0183 35.1008 14.6303 35.1008C15.2422 35.1008 16.519 34.6577 19.3785 34.415C20.4336 34.3306 21.0667 34.531 20.0432 35.9766C19.2951 37.1155 18.3394 38.1035 17.2259 38.8888C19.6633 41.1469 22.5756 40.8725 22.6283 41.8327ZM24.5487 19.6745C24.3539 18.7692 24.3253 17.836 24.4643 16.9205C24.7527 15.0485 25.3219 13.2308 26.1525 11.5286C27.2077 9.02793 24.7386 7.56125 25.0974 6.64327C25.6461 5.39819 27.3765 6.98091 29.318 7.09698C30.9746 7.19194 31.977 7.09699 33.2643 7.27637C34.9737 7.5085 37.0206 8.07829 37.9281 9.15455C38.8355 10.2308 37.4955 11.3282 35.9549 10.579C34.8365 10.0303 33.4226 10.368 34.2456 11.5392C34.8649 12.3162 35.7612 12.823 36.7463 12.9531C39.5425 13.6917 39.6058 16.3718 37.7065 17.7646C35.5434 19.3368 33.3698 18.6932 32.494 15.591C32.0509 14.0399 30.9535 13.2591 29.8351 13.6917C28.7166 14.1243 29.3813 16.1713 30.236 18.0495C31.9242 22.3756 27.7142 22.2701 27.2288 22.1752C26.5939 22.0445 26.0075 21.7408 25.5345 21.2976C25.0615 20.8544 24.7203 20.289 24.5487 19.6639V19.6745Z" fill="url(#paint1_radial_824_2445)"/>
</g>
<defs>
<radialGradient id="paint0_radial_824_2445" cx="0" cy="0" r="1" gradientUnits="userSpaceOnUse" gradientTransform="translate(27.3885 16.8942) scale(20.6219 20.6219)">
<stop stop-color="white"/>
<stop offset="1" stop-color="#CF9C51"/>
</radialGradient>
<radialGradient id="paint1_radial_824_2445" cx="0" cy="0" r="1" gradientUnits="userSpaceOnUse" gradientTransform="translate(22.2835 10.6161) scale(46.193 46.1931)">
<stop stop-color="#00C0F3"/>
<stop offset="0.22" stop-color="#0097D6"/>
<stop offset="0.28" stop-color="#0086CA"/>
<stop offset="0.37" stop-color="#0074BD"/>
<stop offset="0.46" stop-color="#0069B5"/>
<stop offset="0.57" stop-color="#0066B3"/>
</radialGradient>
<clipPath id="clip0_824_2445">
<rect width="44" height="44" fill="white" transform="translate(2 2)"/>
</clipPath>
</defs>
</svg>
