<svg width="48" height="48" viewBox="0 0 48 48" fill="none" xmlns="http://www.w3.org/2000/svg">
<g clip-path="url(#clip0_824_2524)">
<path d="M45.7445 17.9921C46.1595 16.7389 46.0601 15.3722 45.468 14.1923C44.8758 13.0124 43.8395 12.1159 42.5867 11.6997L16.5118 2.94616C15.8911 2.73552 15.2348 2.65066 14.581 2.6965C13.9271 2.74235 13.289 2.918 12.7039 3.21319" fill="white"/>
<path d="M12.7039 3.21317C11.5232 3.80408 10.6254 4.83968 10.2079 6.09232L2.25538 29.9963C1.84354 31.2495 1.94449 32.6148 2.53619 33.7939C3.12789 34.9729 4.16222 35.8698 5.41316 36.2886L31.4997 45.0422C32.1208 45.2503 32.7768 45.3338 33.4303 45.288C34.0837 45.2421 34.7216 45.0679 35.3076 44.7752C35.8924 44.4845 36.4133 44.0802 36.8398 43.5858C37.2664 43.0915 37.5902 42.517 37.7921 41.896L45.7562 17.992" fill="white"/>
<path d="M25.4627 26.1768C24.0272 27.7854 22.2337 29.0341 20.2269 29.8221L19.0659 30.2749V19.1994L20.2269 19.6522C22.2363 20.4361 24.0337 21.6808 25.4743 23.286C26.3861 21.7943 26.961 20.1215 27.1589 18.3844C27.3568 16.6474 27.1729 14.8881 26.6201 13.2295C26.0672 11.571 25.1588 10.0532 23.9582 8.78228C22.7577 7.51138 21.294 6.51806 19.6696 5.87175L15.8617 4.57149C15.4584 4.43917 15.0331 4.38766 14.6099 4.41993C14.1868 4.4522 13.7741 4.56762 13.3956 4.75957C13.0171 4.95152 12.6802 5.21623 12.4041 5.53856C12.128 5.86088 11.9182 6.23448 11.7867 6.63798L3.81102 30.5652C3.55062 31.3889 3.62512 32.282 4.0184 33.0512C4.41169 33.8204 5.09211 34.4037 5.91234 34.6749L24.0115 40.7119C25.8167 38.7844 26.9351 36.3149 27.1933 33.6867C27.4515 31.0586 26.835 28.4187 25.4395 26.1768H25.4627ZM14.991 18.5377V30.9599H13.1915V18.5725L14.991 18.5377Z" fill="#2293C8"/>
<path d="M24.4178 24.7256C23.3984 23.535 22.1612 22.5499 20.7725 21.8232V27.6279C22.1671 26.8953 23.4053 25.8976 24.4178 24.6907" fill="#E43D30"/>
<path d="M42.018 13.2902L25.4048 7.74088C27.4916 10.0229 28.7427 12.9452 28.9535 16.0303C29.1644 19.1154 28.3226 22.1808 26.5657 24.7256C28.2729 27.1943 29.1205 30.156 28.9778 33.1541C28.8352 36.1522 27.7101 39.0201 25.7763 41.3155L32.0222 43.3937C32.4254 43.5276 32.8511 43.5803 33.2747 43.5487C33.6984 43.5172 34.1116 43.402 34.4905 43.2099C34.8694 43.0178 35.2064 42.7525 35.4822 42.4293C35.758 42.1061 35.967 41.7316 36.0971 41.3272L44.1077 17.4116C44.3718 16.5894 44.3003 15.6962 43.9089 14.9265C43.5176 14.1567 42.8379 13.5728 42.018 13.3018V13.2902ZM37.618 30.9366H35.3657L30.7219 24.7256L35.3657 18.5261H37.6876L33.0438 24.7488L37.618 30.9366Z" fill="#215C9C"/>
</g>
<defs>
<clipPath id="clip0_824_2524">
<rect width="44" height="42.6185" fill="white" transform="translate(2 2.69073)"/>
</clipPath>
</defs>
</svg>
