<svg width="48" height="48" viewBox="0 0 48 48" fill="none" xmlns="http://www.w3.org/2000/svg">
<g clip-path="url(#clip0_824_2519)">
<path d="M30.8062 27.6931C30.7036 27.0937 30.5291 26.5086 30.2865 25.9505C29.5816 24.2934 28.3727 22.8977 26.8298 21.9595C25.6111 21.2448 24.2205 20.8726 22.806 20.8825C21.3916 20.8924 20.0063 21.284 18.7979 22.0157C17.6722 22.6872 16.7598 23.6615 16.1658 24.8263C15.9637 25.2244 15.7937 25.638 15.6575 26.063C15.2898 27.1667 15.1493 28.3328 15.2444 29.4918C15.3395 30.6507 15.6683 31.7787 16.211 32.8084C16.5824 33.4386 17.1492 33.9318 17.8264 34.2138C18.1644 34.3539 18.5308 34.4127 18.8959 34.3853C19.261 34.358 19.6145 34.2453 19.9276 34.0564C20.2721 33.7844 20.5293 33.4182 20.6678 33.0028C20.8062 32.5875 20.8199 32.1409 20.7071 31.7179C20.4447 30.6432 20.472 29.5185 20.7861 28.4576C20.9108 28.1108 21.1115 27.7959 21.3735 27.5357C21.5363 27.3797 21.7232 27.2506 21.9271 27.1535C22.3527 26.9406 22.8336 26.8621 23.3053 26.9286C23.7145 27.0166 24.0969 27.2001 24.421 27.464C24.745 27.7279 25.0015 28.0646 25.1692 28.4464C25.4829 29.1947 25.6479 29.9965 25.6549 30.8073C25.6607 34.4686 25.1162 38.1102 24.0395 41.6113C23.9379 41.971 23.8362 42.3196 23.7458 42.6793C23.6554 43.0391 23.5199 43.2977 23.7458 43.5675C23.8247 43.6789 23.9347 43.7649 24.0621 43.8148C24.6044 44.0284 25.0336 43.7024 25.3951 43.3426C27.4471 41.1552 28.9593 38.5225 29.8121 35.6528C30.167 34.6012 30.4501 33.527 30.6593 32.4375C30.982 30.8652 31.0393 29.2504 30.8287 27.6594" fill="#008375"/>
<path d="M45.9887 11.0318C45.9845 10.9082 45.9551 10.7867 45.9022 10.6747C45.8494 10.5627 45.7741 10.4627 45.6811 10.3806C45.5881 10.2986 45.4792 10.2362 45.3612 10.1974C45.2432 10.1586 45.1184 10.1442 44.9946 10.1549C44.4741 10.2266 43.9698 10.3863 43.5034 10.6271C33.9868 14.0167 23.7677 14.9753 13.7822 13.4152C12.0991 13.1679 10.3933 12.8419 8.69881 12.572C7.63693 12.4034 6.58636 12.1673 5.52448 12.0886C4.56436 11.9053 3.57012 12.0943 2.74554 12.617C2.32195 13.0806 2.05926 13.6674 1.99621 14.2908C1.93316 14.9143 2.07309 15.5414 2.39535 16.0797C3.11486 17.3061 4.15793 18.313 5.41152 18.9915C6.57498 19.812 7.95189 20.2805 9.3766 20.3406C13.1421 20.0932 16.9076 19.7185 20.6731 19.2163C27.0557 18.3956 33.7319 17.6199 39.7304 15.1578C41.7149 14.3723 43.5843 13.3249 45.2883 12.0436C45.5933 11.8188 46.0338 11.4366 46.0338 10.9981" fill="#008375"/>
<path d="M19.2158 7.85021C19.2158 8.81926 19.6026 9.74862 20.2911 10.4338C20.9796 11.1191 21.9135 11.504 22.8872 11.504C23.8609 11.504 24.7947 11.1191 25.4832 10.4338C26.1718 9.74862 26.5586 8.81926 26.5586 7.85021C26.558 7.54764 26.4925 7.24867 26.3665 6.9733C26.0502 6.31 25.6887 5.98397 25.7339 5.18576C25.7339 4.11773 24.3896 4.06151 23.6441 4.06151C22.8152 4.03464 21.9914 4.20017 21.2379 4.54496C20.6527 4.84137 20.1575 5.28764 19.8032 5.83784C19.4318 6.39942 19.2281 7.05435 19.2158 7.72656V7.81649" fill="#D50037"/>
</g>
<defs>
<clipPath id="clip0_824_2519">
<rect width="44" height="39.8095" fill="white" transform="translate(2 4.09524)"/>
</clipPath>
</defs>
</svg>
