<svg width="61" height="16" viewBox="0 0 61 16" fill="none" xmlns="http://www.w3.org/2000/svg">
<g clip-path="url(#clip0_824_3081)">
<path d="M13.0627 0.574066H9.44367L3.72938 7.21957V0.574066H0.851074V15.0714H3.72938V8.40475L9.63414 15.0714H13.2532L6.81933 7.81216L13.0627 0.574066Z" fill="#140064"/>
<path d="M60.8512 15.0714L56.5126 10.0555L60.7242 5.03967H57.6131L53.9306 9.3783V0.574066H51.0522V15.0714H53.9306V10.7116L57.6766 15.0714H60.8512Z" fill="#140064"/>
<path d="M20.1527 4.67989C18.9464 4.67989 17.9094 5.20899 17.0628 5.92856V0.574066H14.1633V10.119C14.1633 12.9973 16.0681 15.3889 19.6448 15.3889C22.8617 15.3889 25.1263 13.1667 25.1263 10.0555C25.1263 7.11375 23.1792 4.67989 20.1527 4.67989ZM19.6448 12.7857C18.1633 12.7857 16.9358 11.6005 16.9147 10.119C16.9147 10.0979 16.9147 10.0767 16.9147 10.0344C16.9147 9.71692 16.9781 9.42063 17.0628 9.14549C17.4438 8.06613 18.4596 7.30422 19.666 7.30422C21.1898 7.30422 22.4173 8.53174 22.4173 10.0555C22.3961 11.5582 21.1686 12.7857 19.6448 12.7857Z" fill="#140064"/>
<path d="M45.5072 4.67989C44.1104 4.67989 43.031 5.18782 42.1845 5.94973V4.99735H39.3062V12.4259V15.0714H42.121H42.1845V9.42063C42.1845 8.25661 43.1368 7.30422 44.3009 7.30422C45.4649 7.30422 46.4173 8.25661 46.4173 9.42063V14.9868V15.0503H49.3167V8.61639C49.3167 8.57407 49.3167 8.53174 49.3167 8.48941C49.3379 6.39417 47.5813 4.67989 45.5072 4.67989Z" fill="#140064"/>
<path d="M32.0257 4.70105C28.7664 4.70105 26.4807 6.92327 26.4807 10.0344C26.4807 12.9762 28.449 15.41 31.4966 15.41C32.8722 15.41 34.1844 14.6693 34.9463 13.6746V15.0714H37.5495V10.0344H37.5283C37.5495 9.99206 37.5495 9.97089 37.5495 9.97089C37.5707 7.09258 35.6447 4.70105 32.0257 4.70105ZM32.0892 12.7645C30.5654 12.7645 29.3379 11.537 29.3379 10.0132C29.3379 8.48941 30.5654 7.2619 32.0892 7.2619C33.613 7.2619 34.8405 8.48941 34.8405 10.0132C34.8405 11.537 33.613 12.7645 32.0892 12.7645Z" fill="#140064"/>
</g>
<defs>
<clipPath id="clip0_824_3081">
<rect width="60" height="14.836" fill="white" transform="translate(0.851074 0.574066)"/>
</clipPath>
</defs>
</svg>
